<?xml version="1.0" encoding="utf-8"?>
<!-- Generator: Adobe Illustrator 16.0.0, SVG Export Plug-In . SVG Version: 6.00 Build 0)  -->
<!DOCTYPE svg PUBLIC "-//W3C//DTD SVG 1.1//EN" "http://www.w3.org/Graphics/SVG/1.1/DTD/svg11.dtd">
<svg version="1.1" id="Layer_1" xmlns="http://www.w3.org/2000/svg" xmlns:xlink="http://www.w3.org/1999/xlink" x="0px" y="0px"
	 width="32px" height="32px" viewBox="0 0 32 32" enable-background="new 0 0 32 32" xml:space="preserve">
<rect x="15.199" y="15.199" fill="#040305" width="1.603" height="1.603"/>
<rect x="16.802" y="13.596" fill="#040305" width="1.604" height="1.603"/>
<rect x="18.405" y="11.992" fill="#040305" width="1.604" height="1.604"/>
<rect x="20.009" y="10.389" fill="#040305" width="1.604" height="1.604"/>
<rect x="21.612" y="8.785" fill="#040305" width="1.604" height="1.604"/>
<rect x="23.216" y="7.182" fill="#040305" width="1.604" height="1.604"/>
<rect x="24.819" y="5.578" fill="#040305" width="1.604" height="1.604"/>
<rect x="26.423" y="3.975" fill="#040305" width="1.604" height="1.604"/>
<rect x="3.974" y="26.415" fill="#040305" width="1.604" height="1.604"/>
<rect x="5.578" y="24.812" fill="#040305" width="1.604" height="1.604"/>
<rect x="7.181" y="23.208" fill="#040305" width="1.604" height="1.604"/>
<rect x="8.785" y="21.604" fill="#040305" width="1.604" height="1.604"/>
<rect x="10.388" y="20.001" fill="#040305" width="1.604" height="1.604"/>
<rect x="11.992" y="18.397" fill="#040305" width="1.604" height="1.604"/>
<rect x="13.595" y="16.794" fill="#040305" width="1.604" height="1.604"/>
<rect x="13.595" y="13.596" fill="#040305" width="1.604" height="1.603"/>
<rect x="11.991" y="11.992" fill="#040305" width="1.604" height="1.604"/>
<rect x="10.388" y="10.389" fill="#040305" width="1.604" height="1.604"/>
<rect x="8.784" y="8.785" fill="#040305" width="1.604" height="1.604"/>
<rect x="7.181" y="7.182" fill="#040305" width="1.604" height="1.604"/>
<rect x="5.577" y="5.578" fill="#040305" width="1.604" height="1.604"/>
<rect x="3.974" y="3.975" fill="#040305" width="1.604" height="1.604"/>
<rect x="26.422" y="26.415" fill="#040305" width="1.604" height="1.604"/>
<rect x="24.818" y="24.812" fill="#040305" width="1.604" height="1.604"/>
<rect x="23.215" y="23.208" fill="#040305" width="1.604" height="1.604"/>
<rect x="21.611" y="21.604" fill="#040305" width="1.604" height="1.604"/>
<rect x="20.008" y="20.001" fill="#040305" width="1.604" height="1.604"/>
<rect x="18.404" y="18.397" fill="#040305" width="1.604" height="1.604"/>
<rect x="16.801" y="16.794" fill="#040305" width="1.603" height="1.604"/>
</svg>
