<?xml version="1.0" encoding="utf-8"?>
<!-- Generator: Adobe Illustrator 16.0.0, SVG Export Plug-In . SVG Version: 6.00 Build 0)  -->
<!DOCTYPE svg PUBLIC "-//W3C//DTD SVG 1.1//EN" "http://www.w3.org/Graphics/SVG/1.1/DTD/svg11.dtd">
<svg version="1.1" id="Layer_1" xmlns="http://www.w3.org/2000/svg" xmlns:xlink="http://www.w3.org/1999/xlink" x="0px" y="0px"
	 width="32px" height="32px" viewBox="0 0 32 32" enable-background="new 0 0 32 32" xml:space="preserve">
<path fill="#010101" d="M27.177,24.915l-0.008-0.007L27.157,24.9c-0.244-0.165-0.543-0.388-0.889-0.659
	c-0.887-0.813-1.627-1.533-2.195-2.138c-1.094-1.192-1.148-1.275-1.313-1.523c-0.131-0.195-0.326-0.491-0.916-1.246l-0.008-0.01
	l-0.01-0.01c-1.514-1.827-2.514-3-3.057-3.59c0.305-0.284,0.623-0.571,0.949-0.861c1.197-1.115,2.102-1.936,2.699-2.454
	c0.57-0.492,1.139-0.973,1.689-1.428l0.301-0.256c2.785-2.373,2.785-2.373,3.016-3.001c0.035-0.093,0.07-0.188,0.146-0.34
	c0.15-0.28,0.297-0.607,0.26-0.956c-0.021-0.519-0.186-1.022-0.484-1.494l-0.051-0.082l-0.068-0.067
	c-0.307-0.304-0.453-0.423-0.609-0.498c-0.236-0.117-0.494-0.165-0.746-0.138c-0.469,0.049-0.885,0.338-1.238,0.86l-0.008,0.01
	L24.62,5.032c-0.158,0.247-0.371,0.554-0.631,0.909c-0.783,0.914-1.479,1.675-2.064,2.264c-1.156,1.131-1.238,1.189-1.48,1.362
	c-0.191,0.135-0.48,0.341-1.217,0.954L19.22,10.53l-0.01,0.008c-1.281,1.134-2.225,1.986-2.873,2.589
	c-0.318-0.315-0.646-0.627-0.984-0.939c-1.279-1.253-2.652-2.589-4.08-3.966c-1.264-1.359-1.574-1.687-1.672-1.786
	C9.21,5.968,8.856,5.552,8.546,5.201c-0.781-0.922-1.854-1.122-3.01-0.552L5.493,4.669L5.454,4.695
	C4.827,5.097,4.517,5.777,4.575,6.609c0.031,0.409,0.146,0.854,0.348,1.365l0.092,0.222l0.193,0.14
	c1.414,1.035,3.242,2.519,5.43,4.409c1.18,1.047,2.225,2.014,3.129,2.887c-0.492,0.513-0.98,1.048-1.469,1.61
	c-1.211,1.32-2.5,2.735-3.832,4.208c-1.316,1.308-1.635,1.629-1.73,1.729c-0.455,0.406-0.859,0.773-1.199,1.095
	c-0.896,0.81-1.063,1.89-0.455,3.026l0.021,0.042l0.029,0.039c0.422,0.613,1.109,0.902,1.939,0.815
	c0.408-0.043,0.852-0.173,1.354-0.394l0.219-0.097l0.135-0.198c0.988-1.447,2.41-3.321,4.229-5.569
	c1.189-1.431,2.277-2.678,3.23-3.711c0.41,0.464,0.826,0.946,1.254,1.456c1.074,1.234,1.865,2.163,2.363,2.778
	c0.475,0.584,0.936,1.168,1.371,1.734l0.246,0.31c2.281,2.858,2.281,2.858,2.902,3.111c0.09,0.037,0.186,0.075,0.336,0.157
	c0.273,0.161,0.598,0.316,0.947,0.293c0.518-0.007,1.025-0.153,1.508-0.438l0.082-0.048l0.07-0.065
	c0.313-0.297,0.439-0.438,0.518-0.594c0.123-0.231,0.18-0.489,0.162-0.74C27.962,25.712,27.687,25.286,27.177,24.915z"/>
</svg>
