<?xml version="1.0" encoding="utf-8"?>
<!-- Generated by IcoMoon.io -->
<!DOCTYPE svg PUBLIC "-//W3C//DTD SVG 1.1//EN" "http://www.w3.org/Graphics/SVG/1.1/DTD/svg11.dtd">
<svg version="1.1" xmlns="http://www.w3.org/2000/svg" xmlns:xlink="http://www.w3.org/1999/xlink" width="12" height="12" viewBox="0 0 12 12">
	<path d="M6.552 0.75c0 0-2.355 0-3.14 0-1.408 0-2.732 1.066-2.732 2.302 0 1.262 0.96 2.281 2.392 2.281 0.1 0 0.196-0.002 0.291-0.009-0.093 0.178-0.159 0.378-0.159 0.586 0 0.351 0.189 0.635 0.427 0.867-0.18 0-0.354 0.005-0.544 0.005-1.744-0-3.086 1.11-3.086 2.262 0 1.134 1.471 1.844 3.215 1.844 1.988 0 3.086-1.128 3.086-2.262 0-0.909-0.268-1.454-1.098-2.041-0.284-0.201-0.827-0.689-0.827-0.977 0-0.337 0.096-0.502 0.603-0.898 0.519-0.406 0.887-0.976 0.887-1.64 0-0.79-0.352-1.56-1.012-1.814h0.996l0.703-0.508zM5.455 8.431c0.025 0.105 0.038 0.213 0.038 0.324 0 0.916-0.591 1.633-2.285 1.633-1.205 0-2.076-0.763-2.076-1.679 0-0.898 1.080-1.646 2.285-1.633 0.281 0.003 0.543 0.048 0.781 0.125 0.654 0.455 1.124 0.712 1.256 1.231zM3.525 5.013c-0.809-0.024-1.578-0.905-1.717-1.967-0.14-1.062 0.403-1.875 1.212-1.851 0.809 0.024 1.578 0.877 1.717 1.939 0.14 1.062-0.403 1.904-1.212 1.88zM9.75 3v-2.25h-0.75v2.25h-2.25v0.75h2.25v2.25h0.75v-2.25h2.25v-0.75z" fill="#000000" />
</svg>
