<?xml version="1.0" encoding="utf-8"?>
<!-- Generator: Adobe Illustrator 16.0.0, SVG Export Plug-In . SVG Version: 6.00 Build 0)  -->
<!DOCTYPE svg PUBLIC "-//W3C//DTD SVG 1.1//EN" "http://www.w3.org/Graphics/SVG/1.1/DTD/svg11.dtd">
<svg version="1.1" id="Layer_1" xmlns="http://www.w3.org/2000/svg" xmlns:xlink="http://www.w3.org/1999/xlink" x="0px" y="0px"
	 width="32px" height="32px" viewBox="0 0 32 32" enable-background="new 0 0 32 32" xml:space="preserve">
<path fill="#231F20" d="M24.688,12.363V8.688C24.688,3.897,20.791,0,16,0c-4.79,0-8.688,3.897-8.688,8.688v3.675H3.971V32h24.059
	V12.363H24.688z M19.26,27.276h-6.594l1.683-3.704c-1.102-0.593-1.857-1.746-1.857-3.086c0-1.937,1.57-3.508,3.509-3.508
	c1.939,0,3.508,1.572,3.508,3.508c0,1.332-0.738,2.489-1.832,3.085L19.26,27.276z M11.322,12.363V8.688
	c0-2.579,2.099-4.678,4.678-4.678c2.58,0,4.678,2.099,4.678,4.678v3.675H11.322z"/>
</svg>
