<?xml version="1.0" encoding="utf-8"?>
<!-- Generator: Adobe Illustrator 16.0.0, SVG Export Plug-In . SVG Version: 6.00 Build 0)  -->
<!DOCTYPE svg PUBLIC "-//W3C//DTD SVG 1.1//EN" "http://www.w3.org/Graphics/SVG/1.1/DTD/svg11.dtd">
<svg version="1.1" id="Layer_1" xmlns="http://www.w3.org/2000/svg" xmlns:xlink="http://www.w3.org/1999/xlink" x="0px" y="0px"
	 width="32px" height="32px" viewBox="0 0 32 32" enable-background="new 0 0 32 32" xml:space="preserve">
<g>
	<g>
		<path fill="#474260" d="M7.101,14.193v-1.328h2.431v6.029H7.965v-4.701H7.101z"/>
	</g>
	<g>
		<path fill="#474260" d="M12.813,18.119c0,0.512-0.416,0.936-0.936,0.936s-0.936-0.424-0.936-0.936c0-0.52,0.416-0.936,0.936-0.936
			S12.813,17.6,12.813,18.119z"/>
	</g>
	<g>
		<path fill="#474260" d="M15.596,14.193l-0.104,0.688l0.496-0.04c1.23-0.096,2.134,0.912,2.134,2.159
			c0,0.631-0.279,1.223-0.775,1.631c-0.48,0.383-1.16,0.504-1.759,0.504c-0.688,0-1.383-0.168-1.967-0.545l0.232-1.479
			c0.463,0.416,1.055,0.695,1.679,0.695c0.495,0,0.96-0.359,0.96-0.887c0-0.728-0.696-1.031-1.32-1.031
			c-0.399,0-0.791,0.08-1.15,0.248l0.527-3.271h3.134v1.328H15.596z"/>
	</g>
	<g>
		<path fill="#474260" d="M23.02,17.566h1.879v1.328h-3.445v-6.029h1.566V17.566z"/>
	</g>
</g>
</svg>
