<?xml version="1.0" encoding="utf-8"?>
<!-- Generator: Adobe Illustrator 16.0.0, SVG Export Plug-In . SVG Version: 6.00 Build 0)  -->
<!DOCTYPE svg PUBLIC "-//W3C//DTD SVG 1.1//EN" "http://www.w3.org/Graphics/SVG/1.1/DTD/svg11.dtd">
<svg version="1.1" id="Layer_1" xmlns="http://www.w3.org/2000/svg" xmlns:xlink="http://www.w3.org/1999/xlink" x="0px" y="0px"
	 width="32px" height="32px" viewBox="0 0 32 32" enable-background="new 0 0 32 32" xml:space="preserve">
<g>
	<g>
		<g>
			<path fill="#474260" d="M2.812,14.183c0.064-0.632,0.32-1.112,0.704-1.456s0.92-0.52,1.535-0.52c1.079,0,1.927,0.624,1.927,1.751
				c0,0.48-0.191,0.992-0.632,1.239c0.64,0.168,0.983,0.904,0.983,1.52c0,1.319-1.143,1.999-2.343,1.999
				c-0.688,0-1.311-0.184-1.799-0.68c-0.359-0.368-0.703-0.992-0.688-1.52h1.6c0,0.48,0.344,0.855,0.839,0.855
				c0.48,0,0.84-0.32,0.84-0.808c0-0.456-0.392-0.808-0.831-0.808c-0.097,0-0.185,0.024-0.272,0.048v-1.047h0.16
				c0.399,0,0.688-0.248,0.688-0.664c0-0.368-0.264-0.607-0.615-0.607c-0.4,0-0.648,0.304-0.64,0.696H2.812z"/>
		</g>
		<g>
			<path fill="#474260" d="M7.884,13.775v-1.328h4.949l-3.462,6.029H7.652l2.75-4.701H7.884z"/>
		</g>
	</g>
	<g>
		<g>
			<path fill="#474260" d="M13.289,17.701c0,0.512-0.416,0.936-0.936,0.936s-0.936-0.424-0.936-0.936
				c0-0.52,0.416-0.936,0.936-0.936S13.289,17.182,13.289,17.701z"/>
		</g>
		<g>
			<path fill="#474260" d="M16.153,13.775l-0.104,0.688l0.496-0.04c1.231-0.096,2.135,0.912,2.135,2.159
				c0,0.631-0.28,1.223-0.775,1.631c-0.479,0.384-1.159,0.504-1.759,0.504c-0.688,0-1.384-0.168-1.968-0.544l0.232-1.479
				c0.464,0.416,1.056,0.695,1.679,0.695c0.496,0,0.96-0.359,0.96-0.887c0-0.728-0.696-1.031-1.319-1.031
				c-0.4,0-0.792,0.08-1.151,0.248l0.527-3.271h3.135v1.328H16.153z"/>
		</g>
	</g>
	<g>
		<g>
			<path fill="#474260" d="M25.084,14.471c-0.32-0.432-0.84-0.664-1.375-0.664c-0.96,0-1.607,0.736-1.607,1.671
				c0,0.952,0.655,1.639,1.631,1.639c0.512,0,1.023-0.248,1.352-0.64v1.879c-0.52,0.16-0.896,0.28-1.384,0.28
				c-0.839,0-1.639-0.32-2.263-0.888c-0.663-0.6-0.967-1.383-0.967-2.279c0-0.824,0.312-1.615,0.887-2.207
				c0.592-0.608,1.447-0.976,2.295-0.976c0.504,0,0.968,0.112,1.432,0.304V14.471z"/>
		</g>
		<g>
			<path fill="#474260" d="M27.621,17.149H29.5v1.327h-3.446v-6.029h1.567V17.149z"/>
		</g>
	</g>
</g>
</svg>
