<?xml version="1.0" encoding="utf-8"?>
<!-- Generator: Adobe Illustrator 16.0.0, SVG Export Plug-In . SVG Version: 6.00 Build 0)  -->
<!DOCTYPE svg PUBLIC "-//W3C//DTD SVG 1.1//EN" "http://www.w3.org/Graphics/SVG/1.1/DTD/svg11.dtd">
<svg version="1.1" id="Layer_1" xmlns="http://www.w3.org/2000/svg" xmlns:xlink="http://www.w3.org/1999/xlink" x="0px" y="0px"
	 width="32px" height="32px" viewBox="0 0 32 32" enable-background="new 0 0 32 32" xml:space="preserve">
<g>
	<g>
		<path fill="#474260" d="M7.101,13.775v-1.328h2.431v6.029H7.965v-4.702H7.101z"/>
	</g>
	<g>
		<path fill="#474260" d="M12.813,17.701c0,0.512-0.416,0.936-0.936,0.936s-0.936-0.424-0.936-0.936
			c0-0.521,0.416-0.936,0.936-0.936S12.813,17.181,12.813,17.701z"/>
	</g>
	<g>
		<path fill="#474260" d="M15.596,13.775l-0.104,0.688l0.495-0.04c1.231-0.096,2.135,0.912,2.135,2.159
			c0,0.632-0.279,1.224-0.775,1.632c-0.479,0.383-1.159,0.503-1.759,0.503c-0.688,0-1.383-0.168-1.967-0.544l0.231-1.479
			c0.464,0.417,1.056,0.696,1.68,0.696c0.495,0,0.959-0.359,0.959-0.888c0-0.728-0.695-1.031-1.319-1.031
			c-0.399,0-0.791,0.08-1.151,0.248l0.528-3.271h3.134v1.328H15.596z"/>
	</g>
	<g>
		<path fill="#474260" d="M23.02,17.148h1.88v1.328h-3.446v-6.029h1.566V17.148z"/>
	</g>
</g>
</svg>
