<?xml version="1.0" encoding="utf-8"?>
<!-- Generator: Adobe Illustrator 16.0.0, SVG Export Plug-In . SVG Version: 6.00 Build 0)  -->
<!DOCTYPE svg PUBLIC "-//W3C//DTD SVG 1.1//EN" "http://www.w3.org/Graphics/SVG/1.1/DTD/svg11.dtd">
<svg version="1.1" id="Layer_1" xmlns="http://www.w3.org/2000/svg" xmlns:xlink="http://www.w3.org/1999/xlink" x="0px" y="0px"
	 width="32px" height="32px" viewBox="0 0 32 32" enable-background="new 0 0 32 32" xml:space="preserve">
<g>
	<g>
		<path fill="#474260" d="M5.121,14.313v-1.328h4.949l-3.462,6.029H4.89l2.75-4.701H5.121z"/>
	</g>
	<g>
		<path fill="#474260" d="M15.343,16c0,1.567-0.76,3.254-2.559,3.254c-1.8,0-2.559-1.687-2.559-3.254s0.768-3.254,2.559-3.254
			S15.343,14.433,15.343,16z M11.784,15.991c0,0.584,0.191,1.879,1,1.879c0.807,0,0.998-1.295,0.998-1.879
			c0-0.583-0.191-1.862-0.998-1.862C11.976,14.129,11.784,15.408,11.784,15.991z"/>
	</g>
	<g>
		<path fill="#474260" d="M22.694,15.009c-0.32-0.432-0.84-0.664-1.375-0.664c-0.959,0-1.607,0.736-1.607,1.671
			c0,0.952,0.656,1.64,1.631,1.64c0.512,0,1.023-0.248,1.352-0.641v1.879c-0.52,0.16-0.896,0.281-1.383,0.281
			c-0.84,0-1.64-0.32-2.264-0.889c-0.663-0.6-0.967-1.383-0.967-2.278c0-0.823,0.312-1.615,0.887-2.206
			c0.592-0.608,1.447-0.976,2.295-0.976c0.504,0,0.968,0.111,1.432,0.304V15.009z"/>
	</g>
	<g>
		<path fill="#474260" d="M25.231,17.687h1.879v1.328h-3.445v-6.029h1.566V17.687z"/>
	</g>
</g>
</svg>
