<?xml version="1.0" encoding="utf-8"?>
<!-- Generator: Adobe Illustrator 16.0.0, SVG Export Plug-In . SVG Version: 6.00 Build 0)  -->
<!DOCTYPE svg PUBLIC "-//W3C//DTD SVG 1.1//EN" "http://www.w3.org/Graphics/SVG/1.1/DTD/svg11.dtd">
<svg version="1.1" id="Layer_1" xmlns="http://www.w3.org/2000/svg" xmlns:xlink="http://www.w3.org/1999/xlink" x="0px" y="0px"
	 width="32px" height="32px" viewBox="0 0 32 32" enable-background="new 0 0 32 32" xml:space="preserve">
<g>
	<g>
		<path fill="#474260" d="M15.364,11.917l-2.24,2.569l0.016,0.016c0.271-0.12,0.527-0.184,0.84-0.184
			c1.184,0,1.936,1.016,1.936,2.119c0,1.479-1.216,2.279-2.592,2.279c-0.583,0-1.255-0.152-1.719-0.52
			c-0.479-0.4-0.807-1.032-0.807-1.656c0-0.872,0.447-1.719,0.967-2.398l1.825-2.226H15.364z M14.283,16.486
			c0-0.544-0.415-0.984-0.968-0.984c-0.543,0-0.991,0.44-0.991,0.984c0,0.551,0.448,1,0.991,1
			C13.868,17.485,14.283,17.037,14.283,16.486z"/>
	</g>
	<g>
		<path fill="#474260" d="M19.324,17.149h1.879v1.327h-3.447v-6.029h1.568V17.149z"/>
	</g>
</g>
</svg>
