<?xml version="1.0" encoding="utf-8"?>
<!-- Generator: Adobe Illustrator 16.0.0, SVG Export Plug-In . SVG Version: 6.00 Build 0)  -->
<!DOCTYPE svg PUBLIC "-//W3C//DTD SVG 1.1//EN" "http://www.w3.org/Graphics/SVG/1.1/DTD/svg11.dtd">
<svg version="1.1" id="Layer_1" xmlns="http://www.w3.org/2000/svg" xmlns:xlink="http://www.w3.org/1999/xlink" x="0px" y="0px"
	 width="32px" height="32px" viewBox="0 0 32 32" enable-background="new 0 0 32 32" xml:space="preserve">
<g>
	<g>
		<path fill="#474260" d="M5.157,14.721c0.064-0.632,0.32-1.111,0.703-1.455c0.385-0.344,0.92-0.52,1.535-0.52
			c1.08,0,1.928,0.623,1.928,1.751c0,0.479-0.191,0.991-0.632,1.238c0.64,0.168,0.983,0.904,0.983,1.52
			c0,1.319-1.143,1.999-2.343,1.999c-0.688,0-1.312-0.184-1.799-0.68c-0.36-0.368-0.704-0.991-0.688-1.519h1.599
			c0,0.479,0.344,0.855,0.84,0.855c0.48,0,0.84-0.32,0.84-0.809c0-0.455-0.393-0.807-0.832-0.807c-0.096,0-0.184,0.023-0.271,0.048
			v-1.047h0.16c0.399,0,0.688-0.248,0.688-0.664c0-0.368-0.264-0.607-0.615-0.607c-0.4,0-0.648,0.304-0.641,0.695H5.157z"/>
	</g>
	<g>
		<path fill="#474260" d="M12.492,14.313l-0.104,0.688l0.496-0.04c1.231-0.097,2.135,0.911,2.135,2.158
			c0,0.632-0.279,1.224-0.775,1.632c-0.479,0.383-1.159,0.503-1.759,0.503c-0.688,0-1.384-0.168-1.968-0.544l0.232-1.479
			c0.464,0.416,1.056,0.695,1.68,0.695c0.495,0,0.959-0.359,0.959-0.888c0-0.728-0.695-1.031-1.319-1.031
			c-0.399,0-0.792,0.08-1.151,0.248l0.527-3.271h3.135v1.328H12.492z"/>
	</g>
	<g>
		<path fill="#474260" d="M22.739,15.009c-0.32-0.432-0.84-0.664-1.375-0.664c-0.96,0-1.607,0.736-1.607,1.671
			c0,0.952,0.655,1.64,1.631,1.64c0.512,0,1.023-0.248,1.352-0.641v1.879c-0.52,0.16-0.896,0.281-1.384,0.281
			c-0.839,0-1.64-0.32-2.263-0.889c-0.664-0.6-0.967-1.383-0.967-2.278c0-0.823,0.311-1.615,0.887-2.206
			c0.592-0.608,1.447-0.976,2.295-0.976c0.504,0,0.967,0.111,1.432,0.304V15.009z"/>
	</g>
	<g>
		<path fill="#474260" d="M25.276,17.687h1.879v1.328h-3.446v-6.029h1.567V17.687z"/>
	</g>
</g>
</svg>
