<?xml version="1.0" encoding="utf-8"?>
<!-- Generator: Adobe Illustrator 16.0.0, SVG Export Plug-In . SVG Version: 6.00 Build 0)  -->
<!DOCTYPE svg PUBLIC "-//W3C//DTD SVG 1.1//EN" "http://www.w3.org/Graphics/SVG/1.1/DTD/svg11.dtd">
<svg version="1.1" id="Layer_1" xmlns="http://www.w3.org/2000/svg" xmlns:xlink="http://www.w3.org/1999/xlink" x="0px" y="0px"
	 width="32px" height="32px" viewBox="0 0 32 32" enable-background="new 0 0 32 32" xml:space="preserve">
<g>
	<g>
		<path fill="#474260" d="M9.699,17.687v1.328H4.853l2.463-2.679c0.352-0.384,0.688-0.928,0.688-1.479
			c0-0.384-0.272-0.783-0.688-0.783c-0.424,0-0.656,0.328-0.656,0.735c0,0.08,0.008,0.168,0.024,0.256H4.957
			c0.048-1.383,0.928-2.318,2.351-2.318c1.263,0,2.327,0.831,2.327,2.143c0,0.863-0.36,1.367-0.976,1.927l-0.936,0.871H9.699z"/>
	</g>
	<g>
		<path fill="#474260" d="M15.378,16c0,1.567-0.76,3.254-2.559,3.254c-1.799,0-2.559-1.687-2.559-3.254s0.768-3.254,2.559-3.254
			S15.378,14.433,15.378,16z M11.82,15.992c0,0.584,0.192,1.878,1,1.878s0.999-1.294,0.999-1.878s-0.191-1.863-0.999-1.863
			S11.82,15.408,11.82,15.992z"/>
	</g>
	<g>
		<path fill="#474260" d="M22.73,15.009c-0.32-0.432-0.84-0.664-1.375-0.664c-0.959,0-1.607,0.736-1.607,1.671
			c0,0.952,0.656,1.64,1.631,1.64c0.512,0,1.023-0.248,1.352-0.64v1.878c-0.52,0.16-0.896,0.281-1.383,0.281
			c-0.84,0-1.64-0.32-2.264-0.889c-0.663-0.6-0.967-1.383-0.967-2.278c0-0.823,0.312-1.615,0.887-2.206
			c0.592-0.608,1.447-0.976,2.295-0.976c0.504,0,0.968,0.111,1.432,0.304V15.009z"/>
	</g>
	<g>
		<path fill="#474260" d="M25.268,17.687h1.879v1.328h-3.445v-6.029h1.566V17.687z"/>
	</g>
</g>
</svg>
