<?xml version="1.0" encoding="utf-8"?>
<!-- Generator: Adobe Illustrator 16.0.0, SVG Export Plug-In . SVG Version: 6.00 Build 0)  -->
<!DOCTYPE svg PUBLIC "-//W3C//DTD SVG 1.1//EN" "http://www.w3.org/Graphics/SVG/1.1/DTD/svg11.dtd">
<svg version="1.1" id="Layer_1" xmlns="http://www.w3.org/2000/svg" xmlns:xlink="http://www.w3.org/1999/xlink" x="0px" y="0px"
	 width="32px" height="32px" viewBox="0 0 32 32" enable-background="new 0 0 32 32" xml:space="preserve">
<g>
	<g>
		<g>
			<path fill="#474260" d="M12.896,14.193l-0.104,0.688l0.496-0.04c1.231-0.097,2.135,0.911,2.135,2.159
				c0,0.631-0.279,1.223-0.775,1.631c-0.479,0.384-1.159,0.504-1.759,0.504c-0.688,0-1.384-0.168-1.968-0.544l0.232-1.479
				c0.464,0.416,1.056,0.695,1.68,0.695c0.495,0,0.959-0.359,0.959-0.887c0-0.729-0.695-1.031-1.319-1.031
				c-0.399,0-0.792,0.08-1.151,0.248l0.527-3.271h3.135v1.328H12.896z"/>
		</g>
		<g>
			<path fill="#474260" d="M19.2,17.567h1.879v1.327h-3.445v-6.029H19.2V17.567z"/>
		</g>
	</g>
</g>
</svg>
