<?xml version="1.0" encoding="utf-8"?>
<!-- Generator: Adobe Illustrator 16.0.0, SVG Export Plug-In . SVG Version: 6.00 Build 0)  -->
<!DOCTYPE svg PUBLIC "-//W3C//DTD SVG 1.1//EN" "http://www.w3.org/Graphics/SVG/1.1/DTD/svg11.dtd">
<svg version="1.1" id="Layer_1" xmlns="http://www.w3.org/2000/svg" xmlns:xlink="http://www.w3.org/1999/xlink" x="0px" y="0px"
	 width="32px" height="32px" viewBox="0 0 32 32" enable-background="new 0 0 32 32" xml:space="preserve">
<g>
	<g>
		<path fill="#474260" d="M9.656,14.273l-0.104,0.688l0.495-0.04c1.231-0.097,2.135,0.911,2.135,2.158
			c0,0.632-0.28,1.224-0.775,1.632c-0.479,0.383-1.159,0.503-1.759,0.503c-0.688,0-1.383-0.168-1.967-0.544l0.231-1.479
			c0.464,0.416,1.056,0.695,1.679,0.695c0.496,0,0.96-0.359,0.96-0.888c0-0.728-0.696-1.031-1.319-1.031
			c-0.4,0-0.791,0.08-1.151,0.248l0.528-3.271h3.134v1.328H9.656z"/>
	</g>
	<g>
		<path fill="#474260" d="M19.902,14.969c-0.32-0.432-0.84-0.664-1.375-0.664c-0.959,0-1.608,0.736-1.608,1.671
			c0,0.952,0.657,1.64,1.631,1.64c0.512,0,1.023-0.248,1.352-0.641v1.879c-0.52,0.16-0.895,0.281-1.383,0.281
			c-0.84,0-1.639-0.32-2.263-0.889c-0.663-0.6-0.968-1.383-0.968-2.278c0-0.823,0.313-1.615,0.888-2.206
			c0.592-0.608,1.447-0.976,2.294-0.976c0.504,0,0.969,0.111,1.432,0.304V14.969z"/>
	</g>
	<g>
		<path fill="#474260" d="M22.439,17.646h1.879v1.328h-3.445v-6.029h1.566V17.646z"/>
	</g>
</g>
</svg>
