<?xml version="1.0" encoding="utf-8"?>
<!-- Generator: Adobe Illustrator 16.0.0, SVG Export Plug-In . SVG Version: 6.00 Build 0)  -->
<!DOCTYPE svg PUBLIC "-//W3C//DTD SVG 1.1//EN" "http://www.w3.org/Graphics/SVG/1.1/DTD/svg11.dtd">
<svg version="1.1" id="Layer_1" xmlns="http://www.w3.org/2000/svg" xmlns:xlink="http://www.w3.org/1999/xlink" x="0px" y="0px"
	 width="32px" height="32px" viewBox="0 0 32 32" enable-background="new 0 0 32 32" xml:space="preserve">
<g>
	<g>
		<path fill="#474260" d="M9.005,13.775v-1.328h2.43v6.029H9.868v-4.701H9.005z"/>
	</g>
	<g>
		<path fill="#474260" d="M17.515,17.149v1.327h-4.846l2.463-2.679c0.352-0.384,0.688-0.927,0.688-1.479
			c0-0.384-0.271-0.784-0.688-0.784c-0.424,0-0.656,0.328-0.656,0.736c0,0.08,0.008,0.168,0.024,0.256h-1.728
			c0.049-1.383,0.928-2.319,2.352-2.319c1.264,0,2.326,0.832,2.326,2.143c0,0.864-0.359,1.368-0.975,1.927l-0.936,0.872H17.515z"/>
	</g>
	<g>
		<path fill="#474260" d="M21.116,17.149h1.879v1.327h-3.446v-6.029h1.567V17.149z"/>
	</g>
</g>
</svg>
