<?xml version="1.0" encoding="utf-8"?>
<!-- Generator: Adobe Illustrator 16.0.0, SVG Export Plug-In . SVG Version: 6.00 Build 0)  -->
<!DOCTYPE svg PUBLIC "-//W3C//DTD SVG 1.1//EN" "http://www.w3.org/Graphics/SVG/1.1/DTD/svg11.dtd">
<svg version="1.1" id="Layer_1" xmlns="http://www.w3.org/2000/svg" xmlns:xlink="http://www.w3.org/1999/xlink" x="0px" y="0px"
	 width="32px" height="32px" viewBox="0 0 32 32" enable-background="new 0 0 32 32" xml:space="preserve">
<g>
	<g>
		<path fill="#474260" d="M11.876,18.477l1.719-2.031L13.58,16.43c-0.271,0.12-0.527,0.184-0.848,0.184
			c-1.184,0-1.935-1.016-1.935-2.127c0-1.479,1.216-2.279,2.591-2.279c0.584,0,1.255,0.144,1.719,0.52
			c0.488,0.392,0.808,1.032,0.808,1.663c0,0.872-0.448,1.711-0.968,2.399l-1.287,1.687H11.876z M12.428,14.439
			c0,0.551,0.416,0.991,0.968,0.991c0.551,0,0.999-0.44,0.999-0.991c0-0.552-0.448-0.992-0.999-0.992
			C12.844,13.447,12.428,13.887,12.428,14.439z"/>
	</g>
	<g>
		<path fill="#474260" d="M19.324,17.149h1.879v1.327h-3.447v-6.029h1.568V17.149z"/>
	</g>
</g>
</svg>
