<?xml version="1.0" encoding="utf-8"?>
<!-- Generator: Adobe Illustrator 16.0.0, SVG Export Plug-In . SVG Version: 6.00 Build 0)  -->
<!DOCTYPE svg PUBLIC "-//W3C//DTD SVG 1.1//EN" "http://www.w3.org/Graphics/SVG/1.1/DTD/svg11.dtd">
<svg version="1.1" id="Layer_1" xmlns="http://www.w3.org/2000/svg" xmlns:xlink="http://www.w3.org/1999/xlink" x="0px" y="0px"
	 width="32px" height="32px" viewBox="0 0 32 32" enable-background="new 0 0 32 32" xml:space="preserve">
<g>
	<g>
		<path fill="#474260" d="M6.912,14.313l-0.104,0.688l0.496-0.04c1.231-0.097,2.135,0.911,2.135,2.158
			c0,0.632-0.279,1.224-0.775,1.632c-0.479,0.383-1.159,0.503-1.759,0.503c-0.688,0-1.384-0.168-1.968-0.544l0.232-1.479
			c0.464,0.416,1.056,0.695,1.68,0.695c0.495,0,0.959-0.359,0.959-0.888c0-0.728-0.695-1.031-1.319-1.031
			c-0.399,0-0.792,0.08-1.151,0.248l0.527-3.271h3.135v1.328H6.912z"/>
	</g>
	<g>
		<path fill="#474260" d="M15.294,16c0,1.567-0.76,3.254-2.559,3.254S10.177,17.567,10.177,16s0.768-3.254,2.559-3.254
			S15.294,14.433,15.294,16z M11.736,15.991c0,0.584,0.192,1.879,0.999,1.879c0.808,0,1-1.295,1-1.879c0-0.583-0.192-1.862-1-1.862
			C11.929,14.129,11.736,15.408,11.736,15.991z"/>
	</g>
	<g>
		<path fill="#474260" d="M22.646,15.009c-0.319-0.432-0.839-0.664-1.375-0.664c-0.96,0-1.607,0.736-1.607,1.671
			c0,0.952,0.655,1.64,1.632,1.64c0.512,0,1.023-0.248,1.351-0.641v1.879c-0.52,0.16-0.896,0.281-1.384,0.281
			c-0.839,0-1.639-0.32-2.262-0.889c-0.664-0.6-0.968-1.383-0.968-2.278c0-0.823,0.312-1.615,0.888-2.206
			c0.592-0.608,1.447-0.976,2.295-0.976c0.504,0,0.967,0.111,1.431,0.304V15.009z"/>
	</g>
	<g>
		<path fill="#474260" d="M25.184,17.687h1.88v1.328h-3.447v-6.029h1.567V17.687z"/>
	</g>
</g>
</svg>
