<?xml version="1.0" encoding="utf-8"?>
<!-- Generator: Adobe Illustrator 16.0.0, SVG Export Plug-In . SVG Version: 6.00 Build 0)  -->
<!DOCTYPE svg PUBLIC "-//W3C//DTD SVG 1.1//EN" "http://www.w3.org/Graphics/SVG/1.1/DTD/svg11.dtd">
<svg version="1.1" id="Layer_1" xmlns="http://www.w3.org/2000/svg" xmlns:xlink="http://www.w3.org/1999/xlink" x="0px" y="0px"
	 width="32px" height="32px" viewBox="0 0 32 32" enable-background="new 0 0 32 32" xml:space="preserve">
<g>
	<g>
		<path fill="#474260" d="M11.153,14.183c0.063-0.632,0.319-1.112,0.703-1.456s0.92-0.52,1.535-0.52c1.08,0,1.928,0.624,1.928,1.751
			c0,0.48-0.192,0.992-0.632,1.239c0.64,0.168,0.983,0.904,0.983,1.52c0,1.319-1.144,1.999-2.343,1.999
			c-0.688,0-1.312-0.184-1.799-0.68c-0.36-0.368-0.704-0.992-0.688-1.52h1.599c0,0.48,0.344,0.855,0.84,0.855
			c0.479,0,0.839-0.32,0.839-0.808c0-0.456-0.392-0.808-0.831-0.808c-0.096,0-0.184,0.024-0.271,0.048v-1.047h0.159
			c0.4,0,0.688-0.248,0.688-0.664c0-0.368-0.264-0.607-0.615-0.607c-0.399,0-0.647,0.304-0.64,0.696H11.153z"/>
	</g>
	<g>
		<path fill="#474260" d="M19.28,17.149h1.879v1.327h-3.446v-6.029h1.567V17.149z"/>
	</g>
</g>
</svg>
