<?xml version="1.0" encoding="utf-8"?>
<!-- Generator: Adobe Illustrator 16.0.0, SVG Export Plug-In . SVG Version: 6.00 Build 0)  -->
<!DOCTYPE svg PUBLIC "-//W3C//DTD SVG 1.1//EN" "http://www.w3.org/Graphics/SVG/1.1/DTD/svg11.dtd">
<svg version="1.1" id="Layer_1" xmlns="http://www.w3.org/2000/svg" xmlns:xlink="http://www.w3.org/1999/xlink" x="0px" y="0px"
	 width="32px" height="32px" viewBox="0 0 32 32" enable-background="new 0 0 32 32" xml:space="preserve">
<g>
	<g>
		<path fill="#474260" d="M4.397,14.193v-1.328h2.431v6.029H5.261v-4.701H4.397z"/>
	</g>
	<g>
		<path fill="#474260" d="M10.109,18.119c0,0.512-0.416,0.936-0.936,0.936s-0.936-0.424-0.936-0.936c0-0.52,0.416-0.936,0.936-0.936
			S10.109,17.6,10.109,18.119z"/>
	</g>
	<g>
		<path fill="#474260" d="M11.03,14.193v-1.328h4.949l-3.462,6.029h-1.719l2.75-4.701H11.03z"/>
	</g>
	<g>
		<path fill="#474260" d="M18.301,14.193l-0.104,0.688l0.494-0.04c1.232-0.096,2.135,0.912,2.135,2.159
			c0,0.631-0.279,1.223-0.775,1.631c-0.479,0.383-1.158,0.504-1.758,0.504c-0.688,0-1.383-0.168-1.967-0.545l0.231-1.479
			c0.464,0.416,1.056,0.695,1.679,0.695c0.496,0,0.959-0.359,0.959-0.887c0-0.728-0.695-1.031-1.318-1.031
			c-0.4,0-0.791,0.08-1.152,0.248l0.529-3.271h3.133v1.328H18.301z"/>
	</g>
	<g>
		<path fill="#474260" d="M25.725,17.566h1.879v1.328h-3.445v-6.029h1.566V17.566z"/>
	</g>
</g>
</svg>
