<?xml version="1.0" encoding="utf-8"?>
<!-- Generator: Adobe Illustrator 16.0.0, SVG Export Plug-In . SVG Version: 6.00 Build 0)  -->
<!DOCTYPE svg PUBLIC "-//W3C//DTD SVG 1.1//EN" "http://www.w3.org/Graphics/SVG/1.1/DTD/svg11.dtd">
<svg version="1.1" id="Layer_1" xmlns="http://www.w3.org/2000/svg" xmlns:xlink="http://www.w3.org/1999/xlink" x="0px" y="0px"
	 width="32px" height="32px" viewBox="0 0 32 32" enable-background="new 0 0 32 32" xml:space="preserve">
<g>
	<path fill="#2B2637" d="M16,31.993h-0.035C7.143,31.974-0.019,24.784,0,15.967c0.02-8.8,7.198-15.96,16-15.96
		c4.308,0.009,8.323,1.681,11.338,4.708c3.016,3.027,4.671,7.047,4.662,11.319C31.981,24.834,24.804,31.993,16,31.993z M16.03,2.007
		C8.298,2.007,2.018,8.271,2,15.971c-0.017,7.714,6.25,14.004,13.97,14.022l0.03,1v-1c7.703,0,13.983-6.264,14-13.963
		c0.008-3.738-1.44-7.255-4.079-9.904S19.77,2.015,16.03,2.007z"/>
	<g>
		<path fill="#2A2636" d="M14.708,13.987c-0.396-0.33-0.902-0.55-1.43-0.55c-0.396,0-0.925,0.231-0.925,0.693
			c0,0.484,0.583,0.671,0.957,0.792l0.551,0.165c1.155,0.341,2.046,0.924,2.046,2.267c0,0.824-0.198,1.672-0.858,2.232
			c-0.648,0.551-1.518,0.781-2.354,0.781c-1.046,0-2.068-0.352-2.916-0.945l0.925-1.738c0.539,0.474,1.177,0.857,1.914,0.857
			c0.506,0,1.045-0.253,1.045-0.836c0-0.605-0.847-0.814-1.31-0.946c-1.353-0.385-2.244-0.737-2.244-2.343
			c0-1.683,1.199-2.783,2.86-2.783c0.836,0,1.859,0.264,2.597,0.682L14.708,13.987z"/>
		<path fill="#2A2636" d="M19.637,18.32h2.586v1.826H17.48v-8.294h2.156V18.32z"/>
	</g>
</g>
</svg>
