<?xml version="1.0" encoding="utf-8"?>
<!-- Generator: Adobe Illustrator 16.0.0, SVG Export Plug-In . SVG Version: 6.00 Build 0)  -->
<!DOCTYPE svg PUBLIC "-//W3C//DTD SVG 1.1//EN" "http://www.w3.org/Graphics/SVG/1.1/DTD/svg11.dtd">
<svg version="1.1" id="Layer_1" xmlns="http://www.w3.org/2000/svg" xmlns:xlink="http://www.w3.org/1999/xlink" x="0px" y="0px"
	 width="32px" height="32px" viewBox="0 0 32 32" enable-background="new 0 0 32 32" xml:space="preserve">
<path fill="#040305" d="M31.668,5.913l-0.044-0.087l-0.061-0.075c-0.274-0.336-0.406-0.471-0.557-0.562
	c-0.226-0.143-0.476-0.217-0.73-0.217c-0.473,0-0.923,0.244-1.332,0.728l-0.009,0.011L28.931,5.72
	c-0.187,0.233-0.429,0.516-0.728,0.844c-0.882,0.831-1.659,1.518-2.304,2.045c-1.28,1.01-1.365,1.06-1.626,1.205
	c-0.206,0.115-0.517,0.291-1.318,0.826l-0.011,0.009l-0.008,0.006c-2.063,1.47-3.354,2.419-3.941,2.896
	c-1.213,0.89-2.451,1.925-3.683,3.077c-1.353,1.189-2.792,2.47-4.278,3.802c-1.456,1.167-1.806,1.455-1.913,1.546
	c-0.16,0.115-0.313,0.225-0.461,0.332c-0.068-0.085-0.141-0.173-0.213-0.261c-0.438-0.538-0.935-1.148-1.734-1.947
	c-1.246-1.384-1.556-1.719-1.651-1.82c-0.383-0.478-0.733-0.9-1.041-1.261c-0.608-0.744-1.316-0.903-1.803-0.903
	c-0.39,0-0.799,0.101-1.215,0.297L0.96,16.435l-0.041,0.024c-0.681,0.42-1.336,1.333-0.585,3.286l0.086,0.226l0.191,0.146
	c0.232,0.176,0.55,0.371,0.949,0.623c0.842,0.524,1.995,1.244,2.901,2.12c0.804,0.777,1.489,1.672,2.038,2.392
	c0.199,0.261,0.375,0.491,0.537,0.689l0.01,0.024l0.023,0.041c0.274,0.509,0.73,0.838,1.309,0.964
	c0.122,0.036,0.24,0.058,0.353,0.058c0.018,0,0.036,0,0.052,0H8.79c0.017,0,0.035-0.005,0.051-0.005
	c0.028,0,0.056,0.005,0.083,0.005c0.412,0,0.869-0.082,1.395-0.249l0.229-0.074l0.155-0.185c1.143-1.343,2.764-3.067,4.822-5.121
	c1.441-1.406,2.745-2.611,3.865-3.581c1.027-0.874,2.241-1.813,3.598-2.784c1.315-0.988,2.304-1.713,2.96-2.166
	c0.621-0.434,1.238-0.854,1.84-1.251l0.327-0.224c3.034-2.076,3.034-2.076,3.336-2.682c0.044-0.089,0.088-0.18,0.182-0.324
	c0.181-0.264,0.359-0.576,0.362-0.929C32.025,6.936,31.915,6.417,31.668,5.913z"/>
</svg>
