<?xml version="1.0" encoding="utf-8"?>
<!-- Generated by IcoMoon.io -->
<!DOCTYPE svg PUBLIC "-//W3C//DTD SVG 1.1//EN" "http://www.w3.org/Graphics/SVG/1.1/DTD/svg11.dtd">
<svg version="1.1" xmlns="http://www.w3.org/2000/svg" xmlns:xlink="http://www.w3.org/1999/xlink" width="12" height="12" viewBox="0 0 12 12">
	<path d="M12 2.278c-0.442 0.196-0.916 0.328-1.414 0.388 0.508-0.305 0.899-0.787 1.082-1.362-0.476 0.282-1.003 0.487-1.563 0.597-0.449-0.478-1.089-0.777-1.797-0.777-1.36 0-2.462 1.102-2.462 2.462 0 0.193 0.022 0.381 0.064 0.561-2.046-0.103-3.86-1.083-5.074-2.572-0.212 0.364-0.333 0.787-0.333 1.238 0 0.854 0.435 1.608 1.095 2.049-0.404-0.013-0.783-0.124-1.115-0.308-0 0.010-0 0.021-0 0.031 0 1.193 0.849 2.188 1.975 2.414-0.207 0.056-0.424 0.086-0.649 0.086-0.159 0-0.313-0.015-0.463-0.044 0.313 0.978 1.222 1.69 2.3 1.71-0.843 0.66-1.904 1.054-3.058 1.054-0.199 0-0.395-0.012-0.587-0.034 1.090 0.699 2.384 1.106 3.774 1.106 4.528 0 7.005-3.751 7.005-7.005 0-0.107-0.002-0.213-0.007-0.319 0.481-0.347 0.899-0.781 1.229-1.274z" fill="#000000" />
</svg>
