<?xml version="1.0" standalone="no"?>
<!DOCTYPE svg PUBLIC "-//W3C//DTD SVG 1.1//EN" "http://www.w3.org/Graphics/SVG/1.1/DTD/svg11.dtd" >
<svg xmlns="http://www.w3.org/2000/svg">
<metadata>Generated by IcoMoon</metadata>
<defs>
<font id="icomoon: 2014" horiz-adv-x="512">
<font-face units-per-em="512" ascent="480" descent="-32" />
<missing-glyph horiz-adv-x="512" />
<glyph unicode="&#x20;" d="" horiz-adv-x="256" />
<glyph unicode="&#xe600;" d="M506.688 385.392l-0.704 1.392-0.976 1.2c-4.384 5.376-6.496 7.536-8.912 8.992-3.616 2.288-7.616 3.472-11.68 3.472-7.568 0-14.768-3.904-21.312-11.648l-0.144-0.176-0.064-0.144c-2.992-3.728-6.864-8.256-11.648-13.504-14.112-13.296-26.544-24.288-36.864-32.72-20.48-16.16-21.84-16.96-26.016-19.28-3.296-1.84-8.272-4.656-21.088-13.216l-0.176-0.144-0.128-0.096c-33.008-23.52-53.664-38.704-63.056-46.336-19.408-14.24-39.216-30.8-58.928-49.232-21.648-19.024-44.672-39.52-68.448-60.832-23.296-18.672-28.896-23.28-30.608-24.736-2.56-1.84-5.008-3.6-7.376-5.312-1.088 1.36-2.256 2.768-3.408 4.176-7.008 8.608-14.96 18.368-27.744 31.152-19.936 22.144-24.896 27.504-26.416 29.12-6.128 7.648-11.728 14.4-16.656 20.176-9.728 11.904-21.056 14.448-28.848 14.448-6.24 0-12.784-1.616-19.44-4.752l-0.688-0.352-0.656-0.384c-10.896-6.72-21.376-21.328-9.36-52.576l1.376-3.616 3.056-2.336c3.712-2.816 8.8-5.936 15.184-9.968 13.472-8.384 31.92-19.904 46.416-33.92 12.864-12.432 23.824-26.752 32.608-38.272 3.184-4.176 6-7.856 8.592-11.024l0.16-0.384 0.368-0.656c4.384-8.144 11.68-13.408 20.944-15.424 1.952-0.576 3.84-0.928 5.648-0.928 0.288 0 0.576 0 0.832 0h0.112c0.272 0 0.56 0.080 0.816 0.080 0.448 0 0.896-0.080 1.328-0.080 6.592 0 13.904 1.312 22.32 3.984l3.664 1.184 2.48 2.96c18.288 21.488 44.224 49.072 77.152 81.936 23.056 22.496 43.92 41.776 61.84 57.296 16.432 13.984 35.856 29.008 57.568 44.544 21.040 15.808 36.864 27.408 47.36 34.656 9.936 6.944 19.808 13.664 29.44 20.016l5.232 3.584c48.544 33.216 48.544 33.216 53.376 42.912 0.704 1.424 1.408 2.88 2.912 5.184 2.896 4.224 5.744 9.216 5.792 14.864 0.48 8.352-1.28 16.656-5.232 24.72z" />
<glyph unicode="&#xe601;" d="M434.832 81.36l-0.128 0.112-0.192 0.128c-3.904 2.64-8.688 6.208-14.224 10.544-14.192 13.008-26.032 24.528-35.12 34.208-17.504 19.072-18.368 20.4-21.008 24.368-2.096 3.12-5.216 7.856-14.656 19.936l-0.128 0.16-0.16 0.16c-24.224 29.232-40.224 48-48.912 57.44 4.88 4.544 9.968 9.136 15.184 13.776 19.152 17.84 33.632 30.976 43.184 39.264 9.12 7.872 18.224 15.568 27.024 22.848l4.816 4.096c44.56 37.968 44.56 37.968 48.256 48.016 0.56 1.488 1.12 3.008 2.336 5.44 2.4 4.48 4.752 9.712 4.16 15.296-0.336 8.304-2.976 16.352-7.744 23.904l-0.816 1.312-1.088 1.072c-4.912 4.864-7.248 6.768-9.744 7.968-3.776 1.872-7.904 2.64-11.936 2.208-7.504-0.784-14.16-5.408-19.808-13.76l-0.128-0.16-0.080-0.208c-2.528-3.952-5.936-8.864-10.096-14.544-12.528-14.624-23.664-26.8-33.024-36.224-18.496-18.096-19.808-19.024-23.68-21.792-3.056-2.16-7.68-5.456-19.472-15.264l-0.128-0.144-0.16-0.128c-20.496-18.144-35.6-31.776-45.968-41.424-5.088 5.040-10.336 10.032-15.744 15.024-20.464 20.048-42.432 41.424-65.28 63.456-20.224 21.744-25.184 26.992-26.752 28.576-6.256 7.488-11.92 14.144-16.88 19.76-12.496 14.752-29.664 17.952-48.16 8.832l-0.688-0.32-0.624-0.416c-10.032-6.432-14.992-17.312-14.064-30.624 0.496-6.544 2.336-13.664 5.568-21.84l1.472-3.552 3.088-2.24c22.624-16.56 51.872-40.304 86.88-70.544 18.88-16.752 35.6-32.224 50.064-46.192-7.872-8.208-15.68-16.768-23.504-25.76-19.376-21.12-40-43.76-61.312-67.328-21.056-20.928-26.16-26.064-27.68-27.664-7.28-6.496-13.744-12.368-19.184-17.52-14.336-12.96-17.008-30.24-7.28-48.416l0.336-0.672 0.464-0.624c6.752-9.808 17.744-14.432 31.024-13.040 6.528 0.688 13.632 2.768 21.664 6.304l3.504 1.552 2.16 3.168c15.808 23.152 38.56 53.136 67.664 89.104 19.024 22.896 36.432 42.848 51.68 59.376 6.56-7.424 13.216-15.136 20.064-23.296 17.184-19.744 29.84-34.608 37.808-44.448 7.6-9.344 14.976-18.688 21.936-27.744l3.936-4.96c36.496-45.728 36.496-45.728 46.432-49.776 1.44-0.592 2.976-1.2 5.376-2.512 4.368-2.576 9.568-5.056 15.152-4.688 8.288 0.112 16.4 2.448 24.128 7.008l1.312 0.768 1.12 1.040c5.008 4.752 7.024 7.008 8.288 9.504 1.968 3.696 2.88 7.824 2.592 11.84-0.56 7.504-4.96 14.32-13.12 20.256z" />
<glyph unicode="&#xe602;" d="M190.016 184.368l27.504 32.496-0.24 0.256c-4.336-1.92-8.432-2.944-13.568-2.944-18.944 0-30.96 16.256-30.96 34.032 0 23.664 19.456 36.464 41.456 36.464 9.344 0 20.080-2.304 27.504-8.32 7.808-6.272 12.928-16.512 12.928-26.608 0-13.952-7.168-27.376-15.488-38.384l-20.592-26.992h-28.544zM198.848 248.976c0-8.816 6.656-15.856 15.488-15.856 8.816 0 15.984 7.040 15.984 15.856 0 8.832-7.168 15.872-15.984 15.872-8.832 0-15.488-7.040-15.488-15.872zM309.184 205.616h30.064v-21.232h-55.152v96.464h25.088v-75.232z" />
<glyph unicode="&#xe603;" d="M81.744 259.6v21.248h79.184l-55.392-96.464h-27.504l44 75.216h-40.288zM199.344 259.6l-1.664-11.008 7.936 0.64c19.696 1.536 34.16-14.592 34.16-34.544 0-10.096-4.48-19.568-12.416-26.096-7.664-6.144-18.544-8.064-28.144-8.064-11.008 0-22.128 2.688-31.472 8.704l3.712 23.664c7.424-6.656 16.896-11.12 26.864-11.12 7.936 0 15.344 5.744 15.344 14.192 0 11.648-11.136 16.496-21.104 16.496-6.4 0-12.672-1.28-18.416-3.968l8.448 52.336h50.144v-21.248h-33.392zM363.312 248.464c-5.12 6.912-13.44 10.624-22 10.624-15.36 0-25.712-11.776-25.712-26.736 0-15.232 10.48-26.224 26.096-26.224 8.192 0 16.368 3.968 21.632 10.24v-30.064c-8.32-2.56-14.336-4.48-22.144-4.48-13.424 0-26.24 5.12-36.208 14.208-10.624 9.6-15.472 22.128-15.472 36.464 0 13.184 4.976 25.84 14.192 35.312 9.472 9.728 23.152 15.616 36.72 15.616 8.064 0 15.472-1.792 22.912-4.864v-30.096zM403.904 205.616h30.064v-21.232h-55.136v96.464h25.072v-75.232z" />
<glyph unicode="&#xe604;" d="M143.888 259.6v21.248h38.88v-96.464h-25.072v75.216h-13.808zM237.184 259.6l-1.664-11.008 7.936 0.64c19.696 1.536 34.144-14.592 34.144-34.544 0-10.096-4.464-19.568-12.4-26.096-7.664-6.144-18.544-8.064-28.144-8.064-11.008 0-22.144 2.688-31.488 8.704l3.712 23.664c7.424-6.656 16.896-11.12 26.88-11.12 7.92 0 15.344 5.744 15.344 14.192 0 11.648-11.12 16.496-21.104 16.496-6.384 0-12.672-1.28-18.416-3.968l8.432 52.336h50.16v-21.248h-33.392zM338.032 205.616h30.096v-21.232h-55.152v96.464h25.056v-75.232z" />
<glyph unicode="&#xe605;" d="M245.824 289.328l-35.84-41.104 0.256-0.256c4.336 1.92 8.432 2.944 13.44 2.944 18.944 0 30.976-16.256 30.976-33.904 0-23.664-19.456-36.464-41.472-36.464-9.328 0-20.080 2.432-27.504 8.32-7.664 6.4-12.912 16.512-12.912 26.496 0 13.952 7.152 27.504 15.472 38.368l29.2 35.616h28.384zM228.528 216.224c0 8.704-6.64 15.744-15.488 15.744-8.688 0-15.856-7.040-15.856-15.744 0-8.816 7.168-16 15.856-16 8.848 0.016 15.488 7.184 15.488 16zM309.184 205.616h30.064v-21.232h-55.152v96.464h25.088v-75.232z" />
<glyph unicode="&#xe606;" d="M113.616 259.6v21.248h38.896v-96.464h-25.072v75.232h-13.824zM205.008 196.784c0-8.192-6.656-14.976-14.976-14.976s-14.976 6.784-14.976 14.976c0 8.336 6.656 14.976 14.976 14.976s14.976-6.656 14.976-14.976zM249.536 259.6l-1.664-11.008 7.92 0.64c19.696 1.536 34.16-14.592 34.16-34.544 0-10.112-4.464-19.584-12.4-26.112-7.664-6.128-18.544-8.048-28.144-8.048-11.008 0-22.128 2.688-31.472 8.704l3.696 23.664c7.424-6.672 16.896-11.136 26.88-11.136 7.92 0 15.344 5.744 15.344 14.208 0 11.648-11.12 16.496-21.104 16.496-6.384 0-12.656-1.28-18.416-3.968l8.448 52.336h50.144v-21.248h-33.392zM368.32 205.632h30.080v-21.248h-55.136v96.464h25.056v-75.216z" />
<glyph unicode="&#xe607;" d="M155.184 197.008v-21.248h-77.536l39.408 42.864c5.632 6.144 11.008 14.848 11.008 23.664 0 6.144-4.352 12.528-11.008 12.528-6.784 0-10.496-5.248-10.496-11.76 0-1.28 0.128-2.688 0.384-4.096h-27.632c0.768 22.128 14.848 37.088 37.616 37.088 20.208 0 37.232-13.296 37.232-34.288 0-13.808-5.76-21.872-15.616-30.832l-14.976-13.936h31.616zM246.048 224c0-25.072-12.16-52.064-40.944-52.064s-40.944 26.992-40.944 52.064 12.288 52.064 40.944 52.064 40.944-26.992 40.944-52.064zM189.12 224.128c0-9.344 3.072-30.048 16-30.048s15.984 20.704 15.984 30.048-3.056 29.808-15.984 29.808-16-20.464-16-29.808zM363.68 239.856c-5.12 6.912-13.44 10.624-22 10.624-15.344 0-25.712-11.776-25.712-26.736 0-15.232 10.496-26.24 26.096-26.24 8.192 0 16.368 3.968 21.632 10.24v-30.048c-8.32-2.56-14.336-4.496-22.128-4.496-13.44 0-26.24 5.12-36.224 14.224-10.608 9.6-15.472 22.128-15.472 36.448 0 13.168 4.992 25.84 14.192 35.296 9.472 9.728 23.152 15.616 36.72 15.616 8.064 0 15.488-1.776 22.912-4.864v-30.064zM404.288 197.008h30.064v-21.248h-55.12v96.464h25.056v-75.216z" />
<glyph unicode="&#xe608;" d="M178.448 253.072c1.008 10.112 5.104 17.792 11.248 23.296s14.72 8.32 24.56 8.32c17.28 0 30.848-9.984 30.848-28.016 0-7.68-3.072-15.872-10.112-19.824 10.24-2.688 15.728-14.464 15.728-24.32 0-21.104-18.304-31.984-37.488-31.984-11.008 0-20.992 2.944-28.784 10.88-5.76 5.888-11.264 15.872-11.008 24.32h25.584c0-7.68 5.504-13.68 13.44-13.68 7.664 0 13.424 5.12 13.424 12.928 0 7.296-6.272 12.928-13.296 12.928-1.536 0-2.944-0.384-4.336-0.768v16.752h2.544c6.4 0 11.008 3.968 11.008 10.624 0 5.888-4.224 9.712-9.84 9.712-6.384 0-10.352-4.864-10.24-11.136h-23.28zM308.48 205.616h30.064v-21.232h-55.136v96.464h25.072v-75.232z" />
<glyph unicode="&#xe609;" d="M44.992 253.072c1.024 10.112 5.12 17.792 11.264 23.296s14.72 8.32 24.56 8.32c17.264 0 30.832-9.984 30.832-28.016 0-7.68-3.056-15.872-10.112-19.824 10.24-2.688 15.728-14.464 15.728-24.32 0-21.104-18.288-31.984-37.488-31.984-11.008 0-20.976 2.944-28.784 10.88-5.744 5.888-11.248 15.872-11.008 24.32h25.6c0-7.68 5.504-13.68 13.424-13.68 7.68 0 13.44 5.12 13.44 12.928 0 7.296-6.272 12.928-13.296 12.928-1.552 0-2.96-0.384-4.352-0.768v16.752h2.56c6.384 0 11.008 3.968 11.008 10.624 0 5.888-4.224 9.712-9.84 9.712-6.4 0-10.368-4.864-10.24-11.136h-23.296zM126.144 259.6v21.248h79.184l-55.392-96.464h-27.504l44 75.216h-40.288zM212.624 196.784c0-8.192-6.656-14.976-14.976-14.976s-14.976 6.784-14.976 14.976c0 8.32 6.656 14.976 14.976 14.976s14.976-6.672 14.976-14.976zM258.448 259.6l-1.664-11.008 7.936 0.64c19.696 1.536 34.16-14.592 34.16-34.544 0-10.096-4.48-19.568-12.4-26.096-7.664-6.144-18.544-8.064-28.144-8.064-11.008 0-22.144 2.688-31.488 8.704l3.712 23.664c7.424-6.656 16.896-11.12 26.864-11.12 7.936 0 15.36 5.744 15.36 14.192 0 11.648-11.136 16.496-21.104 16.496-6.4 0-12.672-1.28-18.416-3.968l8.432 52.336h50.16v-21.248h-33.408zM401.344 248.464c-5.12 6.912-13.44 10.624-22 10.624-15.36 0-25.712-11.776-25.712-26.736 0-15.232 10.48-26.224 26.096-26.224 8.192 0 16.368 3.968 21.632 10.24v-30.064c-8.32-2.56-14.336-4.48-22.144-4.48-13.424 0-26.224 5.12-36.208 14.208-10.608 9.6-15.472 22.128-15.472 36.464 0 13.184 4.992 25.84 14.192 35.312 9.472 9.728 23.152 15.616 36.72 15.616 8.064 0 15.488-1.792 22.912-4.864v-30.096zM441.936 205.616h30.064v-21.232h-55.136v96.464h25.072v-75.232z" />
<glyph unicode="&#xe60a;" d="M144.080 259.6v21.248h38.88v-96.464h-25.072v75.216h-13.808zM280.24 205.616v-21.232h-77.536l39.408 42.864c5.632 6.144 11.008 14.832 11.008 23.664 0 6.144-4.336 12.544-11.008 12.544-6.784 0-10.496-5.248-10.496-11.776 0-1.28 0.128-2.688 0.384-4.096h-27.648c0.784 22.128 14.848 37.104 37.632 37.104 20.224 0 37.216-13.312 37.216-34.288 0-13.824-5.744-21.888-15.6-30.832l-14.976-13.952h31.616zM337.856 205.616h30.064v-21.232h-55.136v96.464h25.072v-75.232z" />
<glyph unicode="&#xe60b;" d="M257.536 473.008c-100.512-0.192-181.84-81.824-181.648-182.32 0.144-81.536 53.904-150.448 127.872-173.456l54.688-135.968 54.16 136.176c73.856 23.264 127.408 92.352 127.248 173.936-0.192 100.48-81.84 181.824-182.32 181.632zM257.984 212.512c-43.328-0.064-78.528 35.008-78.608 78.368s34.976 78.56 78.32 78.64c43.376 0.080 78.608-34.992 78.672-78.336s-34.992-78.592-78.384-78.672z" />
<glyph unicode="&#xe60c;" d="M260 87.536c71.12 18.784 185.184 116.752 185.184 194.576 0 5.376-1.344 9.392-6.72 9.392-9.376 0-18.784-6.704-40.256-6.704-42.944 0-79.152 37.584-79.152 80.512 0 60.368 41.6 112.704 103.312 112.704 56.336 0 87.216-52.336 87.216-104.656 0-130.144-126.128-268.336-245.568-308.592l-4.016 22.768zM2.4 87.536c71.088 18.784 185.152 116.752 185.152 194.576 0 5.376-1.344 9.392-6.72 9.392-9.392 0-18.784-6.704-40.256-6.704-42.928 0-79.152 37.584-79.152 80.512 0 60.368 41.584 112.704 103.312 112.704 56.336 0 87.216-52.336 87.216-104.656 0-130.144-126.128-268.336-245.568-308.592l-3.984 22.768z" />
<glyph unicode="&#xe60d;" d="M249.568 457.2c-71.12-18.784-185.168-116.736-185.168-194.544 0-5.376 1.344-9.392 6.72-9.392 9.376 0 18.768 6.704 40.256 6.704 42.944 0 79.152-37.584 79.152-80.512 0-60.368-41.584-112.704-103.312-112.704-56.352 0-87.216 52.32-87.216 104.656 0 130.144 126.128 268.336 245.536 308.592l4.032-22.8zM507.168 457.2c-71.088-18.784-185.152-116.72-185.152-194.544 0-5.376 1.344-9.392 6.72-9.392 9.392 0 18.784 6.704 40.256 6.704 42.928 0 79.152-37.584 79.152-80.512 0-60.368-41.584-112.704-103.312-112.704-56.336 0-87.216 52.336-87.216 104.656 0 130.144 126.112 268.336 245.552 308.592l4-22.8z" />
<glyph unicode="&#xe60e;" d="M504.976 468.976l-6.816 6.8-244.032-244.032-244.016 244.032-6.816-6.8 244.032-244.032-244-244 6.768-6.816 244.032 244.016 244.016-244 6.816 6.784-244.016 244.016z" />
<glyph unicode="&#xe60f;" d="M395.008 282.192v58.8c0 76.656-62.352 139.008-139.008 139.008-76.64 0-139.008-62.352-139.008-139.008v-58.8h-53.456v-314.192h384.944v314.192h-53.472zM308.16 43.584h-105.504l26.928 59.264c-17.632 9.488-29.712 27.936-29.712 49.376 0 30.992 25.12 56.128 56.144 56.128s56.128-25.152 56.128-56.128c0-21.312-11.808-39.824-29.312-49.36l25.328-59.28zM181.152 282.192v58.8c0 41.264 33.584 74.848 74.848 74.848 41.28 0 74.848-33.584 74.848-74.848v-58.8h-149.696z" />
<glyph unicode="&#xe610;" d="M512 275.328h-204.656v204.672h-102.672v-204.672h-204.672v-102.672h204.672v-204.656h102.672v204.656h204.656z" />
<glyph unicode="&#xe611;" d="M0 275.328h512v-102.672h-512v102.672z" />
<glyph unicode="&#xe612;" d="M408.704 410.448v27.696c0 14.752-12.080 26.784-27.12 26.784-14.752 0-26.816-12.032-26.816-26.784v-27.696h-198.768v27.696c0 14.752-12.064 26.784-27.104 26.784-14.752 0-26.784-12.032-26.784-26.784v-27.696h-102.112v-427.376h512v427.376h-103.296zM102.112 377.296v-29.792c0-14.752 12.032-26.784 26.784-26.784 15.040 0 27.104 12.032 27.104 26.784v29.792h198.768v-29.792c0-14.752 12.064-26.784 26.816-26.784 15.040 0 27.12 12.032 27.12 26.784v29.792h66.256v-100.88h-438.912l0.080 100.88h65.984zM35.824 18.912l0.208 232.8h438.928v-232.8h-439.136zM241.968 140.464c9.936 5.584 14.32 17.152 14.32 28.016 0 25.472-19.168 39.52-43.552 39.52-13.904 0-26.032-3.968-34.688-11.728-8.672-7.76-14.448-18.608-15.904-32.848h32.88c-0.16 8.816 5.424 15.696 14.464 15.696 7.92 0 13.904-5.424 13.904-13.728 0-9.392-6.496-14.992-15.536-14.992h-3.648v-23.664c2.016 0.528 3.984 1.072 6.176 1.072 9.92 0 18.752-7.952 18.752-18.24 0-11.040-8.128-18.24-18.944-18.24-11.2 0-18.976 8.448-18.976 19.296h-36.112c-0.368-11.92 7.424-26.016 15.536-34.304 11.008-11.216 25.088-15.36 40.64-15.36 27.088 0 52.928 15.36 52.928 45.152 0 13.952-7.776 30.544-22.24 34.352zM302.032 172.592h19.488v-106.192h35.392v136.192h-54.88z" />
<glyph unicode="&#xe613;" d="M287.914-32h-95.915v256h-64v88.235l64 0.042-0.085 51.968c0 71.978 19.499 115.755 104.32 115.755h70.57v-88.235h-44.118c-33.024 0-34.603-12.331-34.603-35.328l-0.128-44.16h79.36l-9.344-88.234-69.93-0.042-0.086-256z" />
<glyph unicode="&#xe614;" d="M279.552 448c0 0-100.48 0-133.974 0-60.075 0-116.566-45.483-116.566-98.219 0-53.846 40.96-97.322 102.058-97.322 4.267 0 8.363 0.085 12.416 0.384-3.968-7.595-6.784-16.128-6.784-25.002 0-14.976 8.064-27.093 18.219-36.992-7.68 0-15.104-0.214-23.21-0.214-74.41 0-131.669-47.36-131.669-96.512 0-48.384 62.763-78.678 137.173-78.678 84.822 0 131.669 48.128 131.669 96.512 0 38.784-11.435 62.038-46.848 87.082-12.118 8.576-35.286 29.398-35.286 41.685 0 14.379 4.096 21.418 25.728 38.315 22.144 17.322 37.846 41.642 37.846 69.974 0 33.707-15.018 66.56-43.178 77.397h42.496l29.994 21.675zM232.746 120.277c1.066-4.48 1.621-9.088 1.621-13.824 0-39.082-25.216-69.674-97.493-69.674-51.413 0-88.576 32.555-88.576 71.637 0 38.315 46.080 70.229 97.494 69.675 11.989-0.128 23.168-2.048 33.322-5.334 27.904-19.413 47.958-30.378 53.589-52.522zM150.4 266.112c-34.517 1.024-67.328 38.614-73.258 83.926-5.974 45.312 17.195 80 51.712 78.976s67.328-37.418 73.258-82.731c5.974-45.312-17.195-81.238-51.712-80.214zM416 352v96h-32v-96h-96v-32h96v-96h32v96h96v32z" />
<glyph unicode="&#xe615;" d="M512 382.805c-18.858-8.363-39.082-13.995-60.331-16.555 21.675 13.014 38.358 33.579 46.166 58.112-20.31-12.032-42.795-20.779-66.688-25.472-19.157 20.395-46.464 33.152-76.672 33.152-58.026 0-105.046-47.019-105.046-105.046 0-8.234 0.939-16.256 2.731-23.936-87.296 4.394-164.694 46.208-216.49 109.738-9.046-15.531-14.208-33.579-14.208-52.822 0-36.438 18.56-68.608 46.72-87.424-17.237 0.555-33.408 5.291-47.574 13.142 0-0.427 0-0.896 0-1.322 0-50.902 36.224-93.355 84.266-102.998-8.832-2.389-18.090-3.67-27.691-3.67-6.784 0-13.355 0.64-19.755 1.877 13.354-41.728 52.139-72.106 98.133-72.96-35.968-28.16-81.237-44.971-130.475-44.971-8.491 0-16.854 0.512-25.046 1.45 46.507-29.824 101.718-47.19 161.024-47.19 193.195 0 298.88 160.042 298.88 298.88 0 4.565-0.086 9.088-0.298 13.611 20.522 14.805 38.358 33.322 52.438 54.358z" />
<glyph unicode="&#xe616;" d="M370.565 457.382l-244.762-244.762-11.049 11.048 244.762 244.762 11.048-11.048zM370.568-11.548l-11.045-11.045-244.762 244.762 11.045 11.045 244.762-244.762z" />
<glyph unicode="&#xe617;" d="M173.548 468.433l244.762-244.762-11.048-11.048-244.762 244.762 11.048 11.048zM407.269 233.223l11.045-11.045-244.762-244.762-11.045 11.045 244.762 244.762z" />
<glyph unicode="&#xe618;" d="M81.936 250.992v21.248h79.184l-55.392-96.464h-27.488l44 75.216h-40.304zM245.488 224c0-25.072-12.16-52.064-40.944-52.064-28.8 0-40.944 26.992-40.944 52.064s12.288 52.064 40.944 52.064 40.944-26.992 40.944-52.064zM188.544 224.144c0-9.344 3.056-30.064 16-30.064 12.912 0 15.968 20.72 15.968 30.064 0 9.328-3.056 29.792-15.968 29.792-12.928 0-16-20.464-16-29.792zM363.104 239.856c-5.12 6.912-13.44 10.624-22 10.624-15.344 0-25.712-11.776-25.712-26.736 0-15.232 10.496-26.24 26.096-26.24 8.192 0 16.368 3.968 21.632 10.256v-30.064c-8.32-2.56-14.336-4.496-22.128-4.496-13.44 0-26.24 5.12-36.224 14.224-10.608 9.6-15.472 22.128-15.472 36.448 0 13.168 4.992 25.84 14.192 35.296 9.472 9.728 23.152 15.616 36.72 15.616 8.064 0 15.488-1.776 22.912-4.864v-30.064zM403.696 197.008h30.064v-21.248h-55.12v96.464h25.056v-75.216z" />
<glyph unicode="&#xe619;" d="M110.592 250.992l-1.664-11.008 7.936 0.64c19.696 1.552 34.16-14.576 34.16-34.528 0-10.112-4.464-19.584-12.4-26.112-7.664-6.128-18.544-8.048-28.144-8.048-11.008 0-22.144 2.688-31.488 8.704l3.712 23.664c7.424-6.656 16.896-11.12 26.88-11.12 7.92 0 15.344 5.744 15.344 14.208 0 11.648-11.12 16.496-21.104 16.496-6.384 0-12.672-1.28-18.416-3.968l8.432 52.336h50.16v-21.248h-33.408zM244.704 224c0-25.072-12.16-52.064-40.944-52.064s-40.928 26.992-40.928 52.064 12.288 52.064 40.944 52.064 40.928-26.992 40.928-52.064zM187.776 224.144c0-9.344 3.072-30.064 15.984-30.064 12.928 0 16 20.72 16 30.064 0 9.328-3.072 29.792-16 29.792-12.896 0-15.984-20.464-15.984-29.792zM362.336 239.856c-5.104 6.912-13.424 10.624-22 10.624-15.36 0-25.712-11.776-25.712-26.736 0-15.232 10.48-26.24 26.112-26.24 8.192 0 16.368 3.968 21.616 10.256v-30.064c-8.32-2.56-14.336-4.496-22.144-4.496-13.424 0-26.224 5.12-36.192 14.224-10.624 9.6-15.488 22.128-15.488 36.448 0 13.168 4.992 25.84 14.208 35.296 9.472 9.728 23.152 15.616 36.72 15.616 8.064 0 15.472-1.776 22.896-4.864v-30.064zM402.944 197.008h30.080v-21.248h-55.152v96.464h25.072v-75.216z" />
<glyph unicode="&#xe61a;" d="M82.512 244.464c1.024 10.112 5.12 17.776 11.248 23.28 6.16 5.504 14.72 8.32 24.56 8.32 17.28 0 30.848-9.968 30.848-28.016 0-7.664-3.056-15.856-10.112-19.808 10.24-2.688 15.728-14.464 15.728-24.32 0-21.104-18.288-31.984-37.488-31.984-11.008 0-20.992 2.944-28.784 10.88-5.76 5.888-11.264 15.856-11.008 24.304h25.584c0-7.664 5.504-13.68 13.44-13.68 7.68 0 13.44 5.12 13.44 12.944 0 7.28-6.288 12.912-13.312 12.912-1.536 0-2.944-0.368-4.336-0.768v16.752h2.56c6.384 0 11.008 3.968 11.008 10.624 0 5.888-4.224 9.712-9.84 9.712-6.4 0-10.368-4.864-10.256-11.12h-23.28zM199.872 250.992l-1.664-11.008 7.936 0.64c19.696 1.552 34.16-14.576 34.16-34.528 0-10.112-4.464-19.584-12.4-26.112-7.664-6.128-18.544-8.048-28.144-8.048-11.008 0-22.144 2.688-31.488 8.704l3.712 23.664c7.424-6.656 16.896-11.12 26.88-11.12 7.92 0 15.344 5.744 15.344 14.208 0 11.648-11.12 16.496-21.104 16.496-6.384 0-12.672-1.28-18.416-3.968l8.432 52.336h50.16v-21.248h-33.408zM363.824 239.856c-5.12 6.912-13.44 10.624-22 10.624-15.36 0-25.712-11.776-25.712-26.736 0-15.232 10.48-26.24 26.096-26.24 8.192 0 16.368 3.968 21.632 10.256v-30.064c-8.32-2.56-14.336-4.496-22.144-4.496-13.424 0-26.24 5.12-36.208 14.224-10.624 9.6-15.472 22.128-15.472 36.448 0 13.168 4.976 25.84 14.192 35.296 9.472 9.728 23.152 15.616 36.72 15.616 8.064 0 15.472-1.776 22.912-4.864v-30.064zM404.416 197.008h30.064v-21.248h-55.136v96.464h25.072v-75.216z" />
<glyph unicode="&#xe61b;" d="M85.84 250.992v21.248h38.896v-96.464h-25.072v75.216h-13.824zM237.872 224c0-25.072-12.16-52.064-40.944-52.064-28.8 0-40.944 26.992-40.944 52.064s12.288 52.064 40.944 52.064 40.944-26.992 40.944-52.064zM180.944 224.144c0-9.344 3.056-30.064 15.984-30.064s15.984 20.72 15.984 30.064c0 9.328-3.056 29.792-15.984 29.792s-15.984-20.464-15.984-29.792zM355.504 239.856c-5.12 6.912-13.44 10.624-22 10.624-15.344 0-25.712-11.776-25.712-26.736 0-15.232 10.496-26.24 26.096-26.24 8.192 0 16.368 3.968 21.632 10.256v-30.064c-8.32-2.56-14.336-4.496-22.128-4.496-13.44 0-26.256 5.12-36.224 14.224-10.624 9.6-15.472 22.128-15.472 36.448 0 13.168 4.976 25.84 14.192 35.296 9.472 9.728 23.152 15.616 36.72 15.616 8.064 0 15.472-1.776 22.912-4.864v-30.064zM396.096 197.008h30.064v-21.248h-55.12v96.464h25.056v-75.216z" />
<glyph unicode="&#xe61c;" d="M206.336 252.912l-1.664-11.008 7.936 0.64c19.696 1.552 34.16-14.576 34.16-34.544 0-10.096-4.464-19.568-12.4-26.096-7.664-6.144-18.544-8.064-28.144-8.064-11.008 0-22.144 2.688-31.488 8.704l3.712 23.664c7.424-6.656 16.896-11.12 26.88-11.12 7.92 0 15.344 5.744 15.344 14.192 0 11.664-11.12 16.496-21.104 16.496-6.384 0-12.672-1.28-18.416-3.968l8.432 52.336h50.16v-21.248h-33.408zM307.2 198.928h30.064v-21.232h-55.12v96.464h25.056v-75.232z" />
<glyph unicode="&#xe61d;" d="M154.496 251.632l-1.664-11.008 7.92 0.64c19.696 1.552 34.16-14.576 34.16-34.528 0-10.112-4.48-19.584-12.4-26.112-7.664-6.128-18.544-8.048-28.144-8.048-11.008 0-22.128 2.688-31.472 8.704l3.696 23.664c7.424-6.656 16.896-11.12 26.864-11.12 7.936 0 15.36 5.744 15.36 14.208 0 11.648-11.136 16.496-21.104 16.496-6.4 0-12.656-1.28-18.416-3.968l8.448 52.336h50.144v-21.248h-33.392zM318.432 240.496c-5.12 6.912-13.44 10.624-22 10.624-15.344 0-25.728-11.776-25.728-26.736 0-15.232 10.512-26.24 26.096-26.24 8.192 0 16.368 3.968 21.632 10.256v-30.064c-8.32-2.56-14.32-4.496-22.128-4.496-13.44 0-26.224 5.12-36.208 14.224-10.608 9.6-15.488 22.128-15.488 36.448 0 13.168 5.008 25.84 14.208 35.296 9.472 9.728 23.152 15.616 36.704 15.616 8.064 0 15.504-1.776 22.912-4.864v-30.064zM359.024 197.664h30.064v-21.248h-55.12v96.464h25.056v-75.216z" />
<glyph unicode="&#xe61e;" d="M190.736 250.992v21.248h38.88v-96.464h-25.056v75.232h-13.824zM291.2 197.008h30.064v-21.248h-55.136v96.464h25.072v-75.216z" />
<glyph unicode="&#xe61f;" d="M70.352 252.912v21.248h38.896v-96.464h-25.072v75.216h-13.824zM161.744 190.096c0-8.192-6.656-14.976-14.976-14.976s-14.976 6.784-14.976 14.976c0 8.32 6.656 14.976 14.976 14.976s14.976-6.672 14.976-14.976zM176.48 252.912v21.248h79.184l-55.392-96.464h-27.504l44 75.216h-40.288zM292.816 252.912l-1.664-11.008 7.904 0.64c19.712 1.536 34.16-14.592 34.16-34.544 0-10.096-4.464-19.568-12.4-26.096-7.664-6.128-18.528-8.064-28.128-8.064-11.008 0-22.128 2.688-31.472 8.72l3.696 23.664c7.424-6.656 16.896-11.12 26.864-11.12 7.936 0 15.344 5.744 15.344 14.192 0 11.648-11.12 16.496-21.088 16.496-6.4 0-12.656-1.28-18.432-3.968l8.464 52.336h50.128v-21.248h-33.376zM411.6 198.944h30.064v-21.248h-55.12v96.464h25.056v-75.216z" />
<glyph unicode="&#xe620;" d="M122.624 276.016c13.776-0.368 23.856-5.888 30.224-16.544 6.304-10.576 9.424-22.432 9.424-35.536 0.096-13.104-3.008-24.88-9.312-35.296-6.368-10.816-16.48-16.384-30.352-16.72-13.808 0.336-23.872 5.904-30.192 16.72-6.368 10.416-9.536 22.192-9.44 35.296-0.096 13.104 3.056 24.96 9.44 35.536 6.336 10.656 16.416 16.176 30.208 16.544zM122.624 253.92c-3.024-0.080-5.568-1.184-7.584-3.312-2-2.128-3.6-4.816-4.816-8.064-1.088-3.168-1.872-6.416-2.352-9.744-0.512-3.2-0.8-6.112-0.8-8.688 0-2.368 0.288-5.184 0.8-8.432 0.48-3.424 1.264-6.752 2.352-10 1.216-3.264 2.816-5.952 4.816-8.080 2.016-2.368 4.544-3.568 7.584-3.568 3.232 0 5.888 1.184 7.952 3.568 2.032 2.128 3.568 4.816 4.608 8.080 2.064 7.008 3.040 13.136 2.992 18.432 0.064 5.376-0.928 11.52-2.992 18.432-1.040 3.248-2.576 5.952-4.608 8.064-2.064 2.112-4.72 3.216-7.952 3.312zM184.080 203.008c4.224-0.080 7.664-1.504 10.288-4.304 2.752-2.736 4.16-6.272 4.24-10.592-0.080-4.208-1.488-7.696-4.24-10.48-2.624-2.912-6.064-4.4-10.288-4.48-4.032 0.080-7.44 1.584-10.176 4.48-2.864 2.784-4.304 6.288-4.304 10.48 0 4.336 1.44 7.856 4.304 10.592 2.736 2.816 6.144 4.24 10.176 4.304zM212.928 244.448c1.184 10.048 4.848 17.792 10.976 23.264 6.096 5.584 14.032 8.368 23.808 8.368 8.56 0 15.664-2.384 21.248-7.184 5.6-4.784 8.432-11.744 8.512-20.864 0-3.92-0.752-7.664-2.256-11.248-1.632-3.584-4.24-6.432-7.808-8.56 5.12-1.552 9.040-4.672 11.744-9.376 2.672-4.8 4-9.76 4-14.944-0.208-10.496-3.888-18.432-11.056-23.792-7.168-5.376-15.584-8.112-25.232-8.192-10.848-0.224-20.128 3.408-27.872 10.864-2.816 3.040-5.296 6.8-7.44 11.248-2.128 4.336-3.2 8.688-3.2 13.056h24.784c0-3.92 1.248-7.12 3.744-9.632 2.304-2.704 5.392-4.080 9.264-4.080 3.808 0 6.96 1.184 9.456 3.584 2.304 2.368 3.488 5.488 3.584 9.312-0.096 3.792-1.344 6.88-3.808 9.248-2.512 2.384-5.552 3.616-9.088 3.696-1.552-0.096-2.992-0.336-4.32-0.752v16.736h2.56c3.152 0 5.68 0.992 7.568 2.944 1.84 1.792 2.816 4.352 2.896 7.68-0.080 3.008-0.96 5.408-2.576 7.2-1.808 1.712-4.128 2.56-6.944 2.56-3.152-0.080-5.568-1.104-7.2-3.056-1.728-2.128-2.64-4.816-2.736-8.064h-22.608zM321.968 250.976l-1.648-11.008 7.696 0.624c9.728 0.544 17.648-2.48 23.712-9.056 6.112-6.672 9.2-15.168 9.296-25.504-0.096-10.496-4.096-19.184-12.032-26.048-3.792-3.008-8.096-5.104-12.88-6.32-4.816-1.168-9.6-1.744-14.4-1.744-10.976 0-21.088 2.88-30.4 8.672l3.568 23.68c7.44-7.264 16.096-10.976 26.032-11.136 3.936 0 7.408 1.376 10.4 4.064 2.912 2.464 4.384 5.84 4.464 10.144-0.16 5.792-2.32 10.016-6.464 12.688-4.192 2.544-8.848 3.808-13.968 3.808-6.304 0-12.256-1.312-17.856-3.936l8.176 52.32h48.544v-21.248h-32.24zM399.856 196.96h29.152v-21.232h-54.128v96.496h24.992v-75.264z" />
<glyph unicode="&#xe621;" d="M120.064 276.048c13.776-0.368 23.856-5.888 30.224-16.544 6.288-10.592 9.424-22.432 9.424-35.552 0.080-13.104-3.024-24.88-9.312-35.296-6.368-10.816-16.496-16.384-30.368-16.72-13.792 0.336-23.856 5.904-30.176 16.72-6.368 10.416-9.52 22.192-9.44 35.296-0.080 13.104 3.056 24.96 9.44 35.552 6.336 10.656 16.416 16.176 30.208 16.544zM120.064 253.952c-3.024-0.096-5.568-1.184-7.584-3.312-1.984-2.128-3.584-4.832-4.8-8.080-1.088-3.168-1.888-6.416-2.368-9.744-0.528-3.2-0.784-6.112-0.784-8.688 0-2.368 0.272-5.184 0.784-8.432 0.48-3.424 1.28-6.752 2.368-10 1.216-3.264 2.816-5.952 4.8-8.080 2.016-2.368 4.56-3.568 7.584-3.568 3.232 0 5.888 1.184 7.952 3.568 2.016 2.128 3.552 4.816 4.608 8.080 2.064 7.008 3.056 13.136 2.976 18.432 0.080 5.376-0.912 11.52-2.976 18.432-1.056 3.248-2.592 5.952-4.608 8.080-2.048 2.128-4.704 3.216-7.952 3.312zM184.064 203.040c4.24-0.080 7.664-1.504 10.288-4.304 2.736-2.736 4.16-6.272 4.24-10.592-0.080-4.208-1.488-7.696-4.24-10.48-2.624-2.912-6.048-4.4-10.288-4.48-4.032 0.080-7.424 1.584-10.16 4.48-2.864 2.784-4.304 6.288-4.304 10.48 0 4.336 1.424 7.856 4.304 10.592 2.752 2.816 6.128 4.24 10.16 4.304zM212.88 251.008v21.232h76.784l-53.712-96.496h-26.656l42.64 75.264h-39.056zM319.408 251.008l-1.632-11.008 7.696 0.624c9.728 0.544 17.648-2.48 23.712-9.056 6.112-6.672 9.216-15.168 9.296-25.504-0.080-10.496-4.080-19.184-12.032-26.048-3.792-3.008-8.080-5.104-12.88-6.32-4.8-1.168-9.6-1.744-14.384-1.744-10.976 0-21.104 2.88-30.416 8.672l3.568 23.68c7.424-7.264 16.096-10.976 26.016-11.136 3.952 0 7.424 1.376 10.416 4.064 2.896 2.464 4.384 5.84 4.48 10.144-0.16 5.792-2.32 10.016-6.48 12.688-4.192 2.544-8.848 3.808-13.984 3.808-6.288 0-12.24-1.312-17.856-3.936l8.16 52.32h48.56v-21.232h-32.24zM402.416 196.992h29.168v-21.232h-54.144v96.496h24.992v-75.264z" />
<glyph unicode="&#xe622;" d="M159.040 276.048c13.776-0.368 23.856-5.888 30.224-16.528 6.288-10.592 9.424-22.432 9.424-35.552 0.080-13.104-3.024-24.88-9.312-35.296-6.368-10.816-16.496-16.384-30.368-16.72-13.792 0.336-23.856 5.904-30.176 16.72-6.368 10.416-9.52 22.192-9.44 35.296-0.080 13.104 3.056 24.96 9.44 35.552 6.336 10.64 16.4 16.144 30.208 16.528zM159.040 253.952c-3.024-0.096-5.568-1.184-7.584-3.312-1.984-2.128-3.584-4.832-4.8-8.080-1.088-3.168-1.888-6.416-2.368-9.744-0.528-3.2-0.784-6.112-0.784-8.688 0-2.368 0.272-5.184 0.784-8.432 0.48-3.424 1.28-6.752 2.368-10 1.216-3.264 2.816-5.952 4.8-8.080 2.016-2.368 4.56-3.568 7.584-3.568 3.232 0 5.888 1.184 7.952 3.568 2.016 2.128 3.552 4.816 4.608 8.080 2.064 7.008 3.056 13.136 2.976 18.432 0.080 5.376-0.912 11.52-2.976 18.432-1.056 3.248-2.592 5.952-4.608 8.080-2.064 2.128-4.72 3.216-7.952 3.312zM223.040 203.040c4.24-0.080 7.664-1.504 10.288-4.304 2.736-2.736 4.16-6.272 4.24-10.592-0.080-4.208-1.488-7.696-4.24-10.48-2.624-2.912-6.048-4.4-10.288-4.48-4.032 0.080-7.424 1.584-10.16 4.48-2.864 2.784-4.304 6.288-4.304 10.48 0 4.336 1.424 7.856 4.304 10.592 2.736 2.816 6.128 4.24 10.16 4.304zM251.84 251.008v21.232h76.8l-53.712-96.496h-26.656l42.64 75.264h-39.072zM363.456 196.992h29.152v-21.232h-54.16v96.496h25.008v-75.264z" />
<glyph unicode="&#xe623;" d="M109.168 196.976v-21.248h-76.592l39.328 42.88c3.008 3.168 5.568 6.8 7.68 10.88 2.128 4.176 3.232 8.448 3.312 12.816 0 3.248-1.024 6.144-3.056 8.688-2.032 2.496-4.832 3.792-8.384 3.872-3.472-0.080-6.144-1.216-8-3.376-1.952-2.208-2.928-5.024-2.928-8.448 0-1.296 0.16-2.64 0.464-4.064h-26.848c0.496 11.328 4 20.336 10.496 27.008 6.416 6.624 15.328 10 26.672 10.112 10.304-0.128 18.944-3.216 25.952-9.248 7.088-6.128 10.704-14.48 10.88-25.056 0-6.752-1.296-12.48-3.856-17.184-2.688-4.752-6.496-9.312-11.424-13.68l-14.608-13.936h30.912zM158.8 276.016c13.776-0.368 23.856-5.888 30.224-16.544 6.288-10.576 9.424-22.416 9.424-35.536 0.080-13.12-3.024-24.88-9.312-35.28-6.368-10.832-16.496-16.4-30.368-16.752-13.792 0.336-23.856 5.92-30.176 16.752-6.368 10.4-9.52 22.16-9.44 35.28-0.080 13.12 3.056 24.96 9.44 35.536 6.336 10.656 16.4 16.176 30.208 16.544zM158.8 253.92c-3.024-0.080-5.568-1.184-7.584-3.312-1.984-2.128-3.584-4.816-4.8-8.064-1.088-3.168-1.888-6.416-2.368-9.744-0.528-3.2-0.784-6.096-0.784-8.688 0-2.368 0.272-5.184 0.784-8.432 0.48-3.424 1.28-6.752 2.368-10 1.216-3.248 2.816-5.936 4.8-8.064 2.016-2.368 4.56-3.568 7.584-3.568 3.232 0 5.888 1.184 7.952 3.568 2.016 2.128 3.552 4.816 4.608 8.064 2.064 7.008 3.056 13.136 2.976 18.432 0.080 5.376-0.912 11.52-2.976 18.432-1.056 3.248-2.592 5.952-4.608 8.064-2.064 2.112-4.72 3.216-7.952 3.312zM246.608 276.016c13.776-0.368 23.856-5.888 30.224-16.544 6.288-10.576 9.424-22.416 9.424-35.536 0.080-13.12-3.024-24.88-9.312-35.28-6.368-10.832-16.496-16.4-30.368-16.752-13.792 0.336-23.856 5.92-30.176 16.752-6.368 10.4-9.52 22.16-9.44 35.28-0.080 13.12 3.056 24.96 9.44 35.536 6.336 10.656 16.4 16.176 30.208 16.544zM246.608 253.92c-3.024-0.080-5.568-1.184-7.584-3.312-1.984-2.128-3.584-4.816-4.8-8.064-1.088-3.168-1.888-6.416-2.368-9.744-0.528-3.2-0.784-6.096-0.784-8.688 0-2.368 0.272-5.184 0.784-8.432 0.48-3.424 1.28-6.752 2.368-10 1.216-3.248 2.816-5.936 4.8-8.064 2.016-2.368 4.56-3.568 7.584-3.568 3.232 0 5.888 1.184 7.952 3.568 2.016 2.128 3.552 4.816 4.608 8.064 2.064 7.008 3.056 13.136 2.976 18.432 0.080 5.376-0.912 11.52-2.976 18.432-1.056 3.248-2.592 5.952-4.608 8.064-2.064 2.112-4.72 3.216-7.952 3.312zM310.128 272.224h23.92l19.008-51.568 20.032 51.568h24.208l14.096-96.496h-24.272l-6.848 55.568h-0.24l-22.448-55.568h-9.632l-21.488 55.568h-0.24l-7.808-55.568h-24.144l15.856 96.496zM450.256 196.976h29.168v-21.248h-54.144v96.496h24.992v-75.248z" />
<glyph unicode="&#xe624;" d="M48.56 244.464c1.168 10.032 4.832 17.792 10.96 23.248 6.112 5.584 14.032 8.368 23.808 8.368 8.576 0 15.664-2.384 21.248-7.184 5.616-4.784 8.432-11.744 8.512-20.864 0-3.92-0.752-7.664-2.256-11.248-1.632-3.584-4.224-6.432-7.808-8.56 5.12-1.536 9.040-4.672 11.744-9.376 2.672-4.784 4-9.76 4-14.944-0.208-10.496-3.888-18.432-11.056-23.792-7.168-5.376-15.584-8.112-25.216-8.192-10.848-0.224-20.144 3.408-27.872 10.864-2.832 3.040-5.312 6.8-7.44 11.248-2.144 4.336-3.216 8.688-3.216 13.056h24.784c0-3.92 1.248-7.12 3.744-9.632 2.32-2.704 5.408-4.064 9.28-4.064 3.792 0 6.944 1.184 9.44 3.568 2.32 2.368 3.504 5.488 3.584 9.312-0.080 3.808-1.344 6.88-3.808 9.264-2.512 2.384-5.552 3.616-9.088 3.696-1.552-0.080-2.992-0.336-4.32-0.752v16.736h2.56c3.168 0 5.68 0.976 7.584 2.944 1.84 1.792 2.8 4.352 2.88 7.68-0.080 3.008-0.944 5.392-2.576 7.184-1.808 1.712-4.128 2.56-6.944 2.56-3.136-0.080-5.552-1.104-7.2-3.056-1.728-2.128-2.64-4.816-2.72-8.064h-22.608zM128.624 250.992v21.248h76.8l-53.712-96.512h-26.656l42.624 75.264h-39.056zM235.168 250.992l-1.648-11.008 7.696 0.624c9.728 0.544 17.648-2.48 23.712-9.056 6.112-6.672 9.2-15.168 9.28-25.504-0.080-10.496-4.080-19.184-12.032-26.048-3.776-3.008-8.080-5.104-12.88-6.32-4.8-1.168-9.6-1.744-14.384-1.744-10.976 0-21.088 2.88-30.4 8.672l3.568 23.68c7.424-7.248 16.096-10.976 26.016-11.12 3.952 0 7.424 1.36 10.416 4.064 2.896 2.448 4.384 5.824 4.464 10.128-0.16 5.792-2.32 10.016-6.464 12.688-4.208 2.544-8.864 3.808-13.984 3.808-6.288 0-12.24-1.312-17.84-3.936l8.16 52.32h48.56v-21.248h-32.24zM298.752 272.224h23.904l19.008-51.568 20.032 51.568h24.224l14.080-96.512h-24.272l-6.848 55.584h-0.24l-22.464-55.584h-9.632l-21.472 55.584h-0.256l-7.808-55.584h-24.144l15.888 96.512zM438.88 196.976h29.152v-21.248h-54.144v96.512h24.992v-75.264z" />
<glyph unicode="&#xe625;" d="M45.456 251.008v21.248h76.784l-53.696-96.496h-26.656l42.624 75.264h-39.056zM149.44 251.008l-1.648-11.008 7.696 0.624c9.728 0.544 17.648-2.48 23.712-9.056 6.112-6.672 9.2-15.168 9.296-25.504-0.096-10.496-4.096-19.184-12.032-26.048-3.792-3.008-8.096-5.104-12.88-6.32-4.816-1.168-9.6-1.744-14.4-1.744-10.976 0-21.088 2.88-30.4 8.672l3.568 23.68c7.44-7.264 16.096-10.976 26.032-11.136 3.936 0 7.408 1.376 10.4 4.064 2.912 2.464 4.384 5.84 4.464 10.144-0.16 5.792-2.32 10.016-6.464 12.688-4.192 2.544-8.848 3.808-13.968 3.808-6.304 0-12.256-1.312-17.856-3.936l8.176 52.32h48.544v-21.248h-32.24zM237.296 276.048c13.776-0.368 23.84-5.888 30.224-16.544 6.288-10.576 9.44-22.416 9.44-35.536 0.080-13.104-3.024-24.88-9.312-35.296-6.368-10.816-16.496-16.384-30.368-16.72-13.776 0.336-23.84 5.904-30.192 16.72-6.368 10.416-9.52 22.192-9.44 35.296-0.080 13.12 3.056 24.96 9.456 35.536 6.32 10.656 16.384 16.176 30.192 16.544zM237.296 253.952c-3.024-0.080-5.568-1.184-7.6-3.312-1.968-2.128-3.584-4.816-4.784-8.064-1.088-3.168-1.888-6.416-2.368-9.744-0.528-3.2-0.784-6.096-0.784-8.688 0-2.368 0.256-5.184 0.784-8.432 0.48-3.424 1.28-6.752 2.368-10 1.2-3.264 2.816-5.952 4.784-8.080 2.032-2.368 4.56-3.568 7.6-3.568 3.232 0 5.888 1.184 7.952 3.568 2.016 2.128 3.552 4.816 4.608 8.080 2.064 7.008 3.056 13.136 2.976 18.432 0.096 5.376-0.912 11.52-2.976 18.432-1.056 3.248-2.592 5.952-4.608 8.064-2.064 2.112-4.72 3.216-7.952 3.312zM300.816 272.256h23.92l19.008-51.568 20.032 51.568h24.208l14.112-96.496h-24.288l-6.848 55.568h-0.24l-22.448-55.568h-9.632l-21.488 55.568h-0.24l-7.808-55.568h-24.16l15.872 96.496zM440.96 196.992h29.152v-21.232h-54.16v96.496h25.008v-75.264z" />
<glyph unicode="&#xe626;" d="M43.072 250.992v21.248h76.8l-53.712-96.496h-26.64l42.624 75.248h-39.072zM151.856 276.048c13.776-0.368 23.856-5.888 30.224-16.544 6.304-10.576 9.44-22.416 9.44-35.536 0.080-13.12-3.024-24.88-9.312-35.296-6.368-10.816-16.496-16.384-30.368-16.72-13.776 0.336-23.84 5.904-30.176 16.72-6.368 10.416-9.536 22.176-9.44 35.296-0.096 13.104 3.056 24.96 9.44 35.536 6.32 10.656 16.4 16.16 30.192 16.544zM151.856 253.936c-3.024-0.080-5.568-1.184-7.584-3.312-1.984-2.128-3.6-4.816-4.8-8.064-1.088-3.168-1.888-6.416-2.368-9.744-0.512-3.2-0.784-6.112-0.784-8.688 0-2.368 0.272-5.184 0.784-8.432 0.48-3.424 1.28-6.752 2.368-10 1.2-3.264 2.816-5.952 4.8-8.080 2.016-2.368 4.544-3.568 7.584-3.568 3.232 0 5.888 1.184 7.952 3.568 2.032 2.128 3.568 4.816 4.608 8.080 2.064 7.008 3.056 13.136 2.992 18.432 0.080 5.376-0.928 11.52-2.992 18.432-1.040 3.248-2.576 5.936-4.608 8.064-2.064 2.128-4.72 3.232-7.952 3.312zM239.664 276.048c13.776-0.368 23.84-5.888 30.224-16.544 6.288-10.576 9.44-22.416 9.44-35.536 0.080-13.12-3.024-24.88-9.312-35.296-6.368-10.816-16.496-16.384-30.368-16.72-13.776 0.336-23.84 5.904-30.176 16.72-6.368 10.416-9.536 22.176-9.44 35.296-0.096 13.104 3.056 24.96 9.44 35.536 6.32 10.656 16.4 16.16 30.192 16.544zM239.664 253.936c-3.024-0.080-5.568-1.184-7.584-3.312-1.984-2.128-3.6-4.816-4.8-8.064-1.088-3.168-1.888-6.416-2.368-9.744-0.512-3.2-0.784-6.112-0.784-8.688 0-2.368 0.272-5.184 0.784-8.432 0.48-3.424 1.28-6.752 2.368-10 1.2-3.264 2.816-5.952 4.8-8.080 2.016-2.368 4.544-3.568 7.584-3.568 3.232 0 5.888 1.184 7.952 3.568 2.016 2.128 3.552 4.816 4.608 8.080 2.064 7.008 3.056 13.136 2.976 18.432 0.096 5.376-0.912 11.52-2.976 18.432-1.056 3.248-2.592 5.936-4.608 8.064-2.048 2.128-4.704 3.232-7.952 3.312zM303.184 272.256h23.92l19.008-51.584 20.032 51.584h24.208l14.112-96.496h-24.288l-6.848 55.568h-0.24l-22.448-55.568h-9.632l-21.488 55.568h-0.24l-7.808-55.568h-24.16l15.872 96.496zM443.328 196.992h29.152v-21.232h-54.16v96.496h25.008v-75.264z" />
</font>
</defs>
</svg>
